<svg width="60" height="60" viewBox="0 0 60 60" fill="none" xmlns="http://www.w3.org/2000/svg">
<path d="M55 0H5C2.23858 0 0 2.23858 0 5V55C0 57.7614 2.23858 60 5 60H55C57.7614 60 60 57.7614 60 55V5C60 2.23858 57.7614 0 55 0Z" fill="white"/>
<mask id="mask0_0_1" style="mask-type:luminance" maskUnits="userSpaceOnUse" x="8" y="10" width="43" height="43">
<path d="M50.4 10.7998H8.39999V52.7998H50.4V10.7998Z" fill="white"/>
</mask>
<g mask="url(#mask0_0_1)">
<path d="M44.557 44.7089C27.555 52.8002 17.004 46.0304 10.25 41.9186C9.832 41.6595 9.12101 41.9792 9.73801 42.6872C11.988 45.4156 19.362 51.9918 28.988 51.9918C38.62 51.9918 44.35 46.736 45.067 45.8191C45.779 44.91 45.276 44.4086 44.557 44.7089ZM49.332 42.072C48.875 41.4774 46.555 41.3666 45.096 41.5459C43.634 41.7201 41.439 42.6137 41.63 43.1502C41.728 43.3512 41.928 43.261 42.932 43.1707C43.939 43.0702 46.761 42.7141 47.348 43.4827C47.939 44.2565 46.449 47.943 46.176 48.5375C45.913 49.132 46.277 49.2853 46.771 48.8894C47.258 48.4935 48.14 47.4685 48.732 46.0178C49.32 44.5593 49.679 42.5246 49.332 42.072Z" fill="#FF9900"/>
<path fill-rule="evenodd" clip-rule="evenodd" d="M33.125 28.1983C33.125 30.3213 33.179 32.0918 32.106 33.9772C31.24 35.5102 29.868 36.4529 28.335 36.4529C26.242 36.4529 25.024 34.8587 25.024 32.5057C25.024 27.8609 29.185 27.0179 33.125 27.0179V28.1983ZM38.621 41.4809C38.26 41.8027 37.739 41.8258 37.333 41.6111C35.524 40.109 35.202 39.4115 34.206 37.9782C31.217 41.0287 29.101 41.9407 25.223 41.9407C20.64 41.9407 17.068 39.1125 17.068 33.4484C17.068 29.0261 19.467 26.0139 22.878 24.5424C25.836 23.2393 29.967 23.0094 33.125 22.6493V21.9441C33.125 20.6487 33.225 19.1158 32.466 17.9969C31.799 16.9928 30.527 16.5789 29.408 16.5789C27.331 16.5789 25.476 17.6442 25.024 19.8516C24.932 20.3422 24.572 20.8251 24.081 20.848L18.792 20.281C18.348 20.1811 17.857 19.821 17.98 19.1388C19.199 12.7314 24.985 10.7998 30.166 10.7998C32.818 10.7998 36.283 11.505 38.375 13.5132C41.027 15.9887 40.774 19.2921 40.774 22.8867V31.379C40.774 33.9313 41.832 35.0503 42.828 36.43C43.181 36.9205 43.257 37.5108 42.813 37.8785C41.701 38.8058 39.724 40.5305 38.636 41.4963L38.62 41.4809" fill="black"/>
<path d="M44.557 44.7089C27.555 52.8002 17.004 46.0304 10.25 41.9186C9.832 41.6595 9.12101 41.9792 9.73801 42.6872C11.988 45.4156 19.362 51.9918 28.988 51.9918C38.62 51.9918 44.35 46.736 45.067 45.8191C45.779 44.91 45.276 44.4086 44.557 44.7089ZM49.332 42.072C48.875 41.4774 46.555 41.3666 45.096 41.5459C43.634 41.7201 41.439 42.6137 41.63 43.1502C41.728 43.3512 41.928 43.261 42.932 43.1707C43.939 43.0702 46.761 42.7141 47.348 43.4827C47.939 44.2565 46.449 47.943 46.176 48.5375C45.913 49.132 46.277 49.2853 46.771 48.8894C47.258 48.4935 48.14 47.4685 48.732 46.0178C49.32 44.5593 49.679 42.5246 49.332 42.072Z" fill="#FF9900"/>
<path fill-rule="evenodd" clip-rule="evenodd" d="M33.125 28.1983C33.125 30.3213 33.179 32.0918 32.106 33.9772C31.24 35.5102 29.868 36.4529 28.335 36.4529C26.242 36.4529 25.024 34.8587 25.024 32.5057C25.024 27.8609 29.185 27.0179 33.125 27.0179V28.1983ZM38.621 41.4809C38.26 41.8027 37.739 41.8258 37.333 41.6111C35.524 40.109 35.202 39.4115 34.206 37.9782C31.217 41.0287 29.101 41.9407 25.223 41.9407C20.64 41.9407 17.068 39.1125 17.068 33.4484C17.068 29.0261 19.467 26.0139 22.878 24.5424C25.836 23.2393 29.967 23.0094 33.125 22.6493V21.9441C33.125 20.6487 33.225 19.1158 32.466 17.9969C31.799 16.9928 30.527 16.5789 29.408 16.5789C27.331 16.5789 25.476 17.6442 25.024 19.8516C24.932 20.3422 24.572 20.8251 24.081 20.848L18.792 20.281C18.348 20.1811 17.857 19.821 17.98 19.1388C19.199 12.7314 24.985 10.7998 30.166 10.7998C32.818 10.7998 36.283 11.505 38.375 13.5132C41.027 15.9887 40.774 19.2921 40.774 22.8867V31.379C40.774 33.9313 41.832 35.0503 42.828 36.43C43.181 36.9205 43.257 37.5108 42.813 37.8785C41.701 38.8058 39.724 40.5305 38.636 41.4963L38.62 41.4809" fill="black"/>
</g>
</svg>
