<svg width="60" height="60" viewBox="0 0 60 60" fill="none" xmlns="http://www.w3.org/2000/svg">
<path d="M55 0H5C2.23858 0 0 2.23858 0 5V55C0 57.7614 2.23858 60 5 60H55C57.7614 60 60 57.7614 60 55V5C60 2.23858 57.7614 0 55 0Z" fill="white"/>
<mask id="mask0_0_1" style="mask-type:luminance" maskUnits="userSpaceOnUse" x="12" y="8" width="36" height="44">
<path d="M48 8.40039H12V51.6004H48V8.40039Z" fill="white"/>
</mask>
<g mask="url(#mask0_0_1)">
<path d="M46.855 23.1273C46.598 23.3217 42.069 25.8143 42.069 31.3569C42.069 37.7678 47.832 40.0358 48.004 40.0919C47.978 40.2302 47.089 43.198 44.966 46.222C43.073 48.8831 41.096 51.5399 38.089 51.5399C35.082 51.5399 34.308 49.8335 30.836 49.8335C27.453 49.8335 26.25 51.5961 23.499 51.5961C20.748 51.5961 18.829 49.1337 16.622 46.1097C14.065 42.5586 12 37.042 12 31.8062C12 23.4081 17.59 18.9542 23.092 18.9542C26.015 18.9542 28.452 20.829 30.287 20.829C32.034 20.829 34.759 18.8418 38.085 18.8418C39.345 18.8418 43.874 18.9542 46.855 23.1273ZM36.506 15.2865C37.881 13.6924 38.854 11.4806 38.854 9.26871C38.854 8.96199 38.828 8.65095 38.77 8.40039C36.532 8.48247 33.87 9.85623 32.264 11.675C31.004 13.0746 29.828 15.2865 29.828 17.5286C29.828 17.8655 29.885 18.2025 29.912 18.3105C30.053 18.3364 30.283 18.3666 30.513 18.3666C32.521 18.3666 35.046 17.0534 36.506 15.2865Z" fill="black"/>
</g>
</svg>
