<svg width="50" height="50" viewBox="0 0 50 50" fill="none" xmlns="http://www.w3.org/2000/svg">
<path opacity="0.4" d="M32.4708 14.5833L11.0271 36.0271C10.8281 36.2193 10.6694 36.4491 10.5602 36.7033C10.451 36.9575 10.3935 37.2309 10.3911 37.5075C10.3887 37.7841 10.4414 38.0584 10.5462 38.3145C10.6509 38.5705 10.8056 38.8031 11.0012 38.9987C11.1969 39.1943 11.4295 39.349 11.6855 39.4538C11.9415 39.5585 12.2159 39.6113 12.4925 39.6089C12.7691 39.6064 13.0425 39.549 13.2967 39.4398C13.5508 39.3306 13.7807 39.1719 13.9729 38.9729L35.4167 17.5292V14.5833H32.4708Z" fill="black"/>
<path fill-rule="evenodd" clip-rule="evenodd" d="M14.5833 12.5C14.5833 11.9475 14.8028 11.4176 15.1935 11.0269C15.5842 10.6362 16.1141 10.4167 16.6666 10.4167H37.5C38.0525 10.4167 38.5824 10.6362 38.9731 11.0269C39.3638 11.4176 39.5833 11.9475 39.5833 12.5V33.3333C39.5833 33.8859 39.3638 34.4158 38.9731 34.8065C38.5824 35.1972 38.0525 35.4167 37.5 35.4167C36.9474 35.4167 36.4175 35.1972 36.0268 34.8065C35.6361 34.4158 35.4166 33.8859 35.4166 33.3333V14.5833H16.6666C16.1141 14.5833 15.5842 14.3638 15.1935 13.9731C14.8028 13.5824 14.5833 13.0525 14.5833 12.5Z" fill="black"/>
</svg>
