<svg width="30" height="30" viewBox="0 0 30 30" fill="none" xmlns="http://www.w3.org/2000/svg">
<g clip-path="url(#clip0_80_57)">
<path fill-rule="evenodd" clip-rule="evenodd" d="M12.3408 15.4129H9.63281V17.8991H12.2156C12.6037 17.8879 13.3209 17.766 13.3209 16.6907C13.3209 15.3997 12.3408 15.4129 12.3408 15.4129ZM19.2731 13.9789C17.8359 13.9789 17.6363 15.4133 17.6363 15.4133H20.6916C20.6916 15.4133 20.7103 13.9789 19.2731 13.9789ZM12.3403 11.9033H9.63281V13.9789H12.1725C12.6113 13.9789 12.9984 13.8383 12.9984 12.8708C12.9984 11.9033 12.3403 11.9033 12.3403 11.9033Z" fill="#1D63F8"/>
<path fill-rule="evenodd" clip-rule="evenodd" d="M22.4747 16.6547H17.6541C17.6541 18.3825 19.2919 18.2738 19.2919 18.2738C20.8378 18.2738 20.7834 17.2734 20.7834 17.2734H22.4203C22.4203 19.9284 19.2366 19.7466 19.2366 19.7466C15.4172 19.7466 15.6628 16.1906 15.6628 16.1906C15.6628 16.1906 15.6591 12.6169 19.2366 12.6169C23.0016 12.6169 22.4747 16.6547 22.4747 16.6547ZM15.2953 16.8066C15.2953 19.6453 12.3403 19.5525 12.3403 19.5525H7.5V10.2497H12.3403C13.8112 10.2497 14.9728 11.0625 14.9728 12.7266C14.9728 14.3916 13.5534 14.4966 13.5534 14.4966C15.4247 14.4966 15.2953 16.8066 15.2953 16.8066ZM17.2359 10.7981H21.0741V11.9437H17.2359V10.7981ZM15 0C6.71531 0 0 6.71531 0 15C0 23.2838 6.71531 30 15 30C23.2847 30 30 23.2838 30 15C30 6.71531 23.2847 0 15 0Z" fill="#1D63F8"/>
</g>
<defs>
<clipPath id="clip0_80_57">
<rect width="30" height="30" fill="white"/>
</clipPath>
</defs>
</svg>
