<svg width="30" height="30" viewBox="0 0 30 30" fill="none" xmlns="http://www.w3.org/2000/svg">
<path d="M25.3125 14.0625H30V15.9375H25.3125V14.0625ZM4.6875 15.9375H0V14.0625H4.6875V15.9375ZM21.6263 7.04684L24.9403 3.73277L26.2659 5.0584L22.9519 8.37246L21.6263 7.04684ZM14.0625 4.6875V0H15.9375V4.6875H14.0625ZM7.0449 8.37188L3.73084 5.05781L5.05646 3.73213L8.37053 7.04619L7.0449 8.37188Z" fill="#4DB5FF"/>
<path d="M23.4375 15C23.4375 10.3401 19.6599 6.5625 15 6.5625C10.3401 6.5625 6.5625 10.3401 6.5625 15M6.5625 15C6.5625 17.6456 7.79186 19.9879 9.70195 21.5272C10.6353 22.2794 11.25 23.3542 11.25 24.5529V27.1875H18.75V24.5529C18.75 23.3542 19.3647 22.2794 20.298 21.5272C22.2081 19.9879 23.4375 17.6456 23.4375 15" fill="#80EAFF"/>
<path d="M9.375 25.3125V27.1875H11.25V30H18.75V27.1875H20.625V25.3125H9.375Z" fill="#4DB5FF"/>
<path d="M11.25 25.3125H18.75V27.1875H11.25V25.3125Z" fill="#3377FF"/>
<path d="M18.0872 12.4624L15 15.5495L11.9128 12.4624L10.5871 13.788L14.0625 17.2634V25.3127H15.9375V17.2634L19.4128 13.788L18.0872 12.4624Z" fill="#4DB5FF"/>
</svg>
