<svg xmlns:xlink="http://www.w3.org/1999/xlink" data-v-63c51f75="" aria-hidden="true" focusable="false" data-prefix="far" data-icon="bold" role="img" xmlns="http://www.w3.org/2000/svg" viewBox="0 0 384 512" class="svg-inline--fa fa-bold fa-w-12" width="384"  height="512" ><path data-v-63c51f75="" fill="#FFFFFF" d="M0 56C0 42.7 10.7 32 24 32H72 88 212c68.5 0 124 55.5 124 124c0 34.7-14.3 66.2-37.3 88.7C339.7 264.9 368 307.1 368 356c0 68.5-55.5 124-124 124H88 72 24c-13.3 0-24-10.7-24-24s10.7-24 24-24H48V256 80H24C10.7 80 0 69.3 0 56zM212 232c42 0 76-34 76-76s-34-76-76-76H96V232H212zM96 280V432H244c42 0 76-34 76-76s-34-76-76-76H212 96z" class=""></path></svg>