<svg width="30" height="30" viewBox="0 0 30 30" fill="none" xmlns="http://www.w3.org/2000/svg">
<path d="M28.5577 15.7321C28.453 15.5019 28.3988 15.2519 28.3988 14.9989C28.3988 14.746 28.453 14.496 28.5577 14.2658L29.6752 11.8057C29.8805 11.3505 29.9905 10.8581 29.9982 10.3588C30.006 9.85946 29.9114 9.36385 29.7203 8.9025C29.5291 8.44116 29.2455 8.02386 28.8869 7.67633C28.5283 7.32881 28.1023 7.05842 27.6352 6.88186L25.1041 5.93121C24.8671 5.84261 24.652 5.7042 24.4731 5.52532C24.2942 5.34644 24.1558 5.13126 24.0672 4.89431L23.1166 2.36488C22.9405 1.89741 22.6704 1.47104 22.323 1.11212C21.9756 0.753204 21.5582 0.469368 21.0968 0.278162C20.6353 0.0869559 20.1395 -0.00755543 19.6401 0.000471642C19.1406 0.00849872 18.6481 0.118893 18.193 0.32483L15.7312 1.44236C15.5009 1.54665 15.251 1.60059 14.9981 1.60059C14.7453 1.60059 14.4954 1.54665 14.265 1.44236L11.8051 0.32483C11.3499 0.119457 10.8575 0.00950526 10.3582 0.00175377C9.85894 -0.00599772 9.36335 0.088616 8.90203 0.279761C8.44071 0.470905 8.02343 0.754529 7.67592 1.11314C7.32841 1.47176 7.05805 1.89776 6.88149 2.36488L5.93089 4.89619C5.8423 5.13314 5.70389 5.34832 5.52502 5.5272C5.34616 5.70607 5.13099 5.84449 4.89405 5.93309L2.36475 6.88373C1.89731 7.05985 1.47096 7.32997 1.11206 7.67741C0.753163 8.02485 0.469342 8.44222 0.278146 8.90372C0.0869504 9.36521 -0.00755503 9.86103 0.000471621 10.3605C0.00849827 10.86 0.118886 11.3525 0.324812 11.8076L1.44228 14.2695C1.54704 14.4998 1.60124 14.7497 1.60124 15.0027C1.60124 15.2556 1.54704 15.5056 1.44228 15.7358L0.324812 18.1959C0.119449 18.6511 0.00950386 19.1435 0.00175278 19.6428C-0.00599829 20.1421 0.0886103 20.6378 0.279745 21.0991C0.470879 21.5604 0.754488 21.9777 1.11308 22.3253C1.47168 22.6728 1.89765 22.9432 2.36475 23.1197L4.89593 24.0704C5.13286 24.159 5.34803 24.2974 5.5269 24.4763C5.70577 24.6552 5.84417 24.8703 5.93277 25.1073L6.88337 27.6367C7.05965 28.104 7.3299 28.5302 7.6774 28.8889C8.02491 29.2476 8.44228 29.5313 8.90374 29.7223C9.36519 29.9133 9.86091 30.0077 10.3603 29.9995C10.8596 29.9914 11.352 29.8809 11.807 29.6749L14.2688 28.5574C14.499 28.4526 14.749 28.3984 15.0019 28.3984C15.2548 28.3984 15.5048 28.4526 15.735 28.5574L18.1949 29.6749C18.6501 29.8803 19.1425 29.9902 19.6418 29.998C20.1411 30.0057 20.6366 29.9111 21.098 29.72C21.5593 29.5288 21.9766 29.2452 22.3241 28.8866C22.6716 28.528 22.9419 28.102 23.1185 27.6348L24.0691 25.1035C24.1577 24.8666 24.2961 24.6514 24.475 24.4725C24.6538 24.2937 24.869 24.1552 25.1059 24.0666L27.6352 23.116C28.1027 22.9399 28.529 22.6698 28.8879 22.3223C29.2468 21.9749 29.5307 21.5575 29.7218 21.096C29.913 20.6345 30.0076 20.1387 29.9995 19.6392C29.9915 19.1398 29.8811 18.6472 29.6752 18.1921L28.5577 15.7321ZM17.5537 21.1116C17.5537 21.8747 16.9293 22.4991 16.1531 22.4991H13.8525C13.1776 22.4991 12.452 21.9985 12.452 20.8866V20.2116H17.5518V21.1116H17.5537ZM18.5661 17.4121C18.0412 17.8377 17.7037 18.3871 17.5912 18.9628H12.4295C12.3413 18.4003 12.0301 17.8752 11.5164 17.4759C10.8326 16.9455 10.283 16.262 9.91173 15.4804C9.54048 14.6987 9.35797 13.8408 9.37892 12.9758C9.44079 10.0001 11.9288 7.53813 14.9156 7.50063C15.6655 7.48385 16.411 7.61926 17.107 7.89867C17.8031 8.17808 18.4353 8.5957 18.9655 9.12629C20.0417 10.1744 20.6286 11.5863 20.6286 13.0864C20.6286 14.7739 19.8786 16.349 18.5661 17.4121Z" fill="#FFD200"/>
</svg>
