<svg width="154" height="108" viewBox="0 0 154 108" fill="none" xmlns="http://www.w3.org/2000/svg">
<path d="M77.75 49.4082H72.75C61.7044 49.4082 52.75 40.454 52.75 29.4082C52.75 18.3626 61.7042 9.4082 72.75 9.4082H77.75C88.7956 9.4082 97.75 18.3624 97.75 29.4082C97.75 40.4538 88.7958 49.4082 77.75 49.4082Z" fill="#289BC3"/>
<path d="M74 59.4082H63.3566C61.3674 59.4082 59.4598 60.1984 58.0533 61.6049L55.25 64.4082L61.5 70.6582L64.5178 67.6404C64.75 67.4082 65.0256 67.2241 65.3289 67.0985C65.6322 66.9728 65.9573 66.9082 66.2856 66.9082H74C76.0711 66.9082 77.75 65.2293 77.75 63.1582C77.75 61.0871 76.0711 59.4082 74 59.4082Z" fill="#FAB991"/>
<path d="M92.0177 57.64C91.0414 56.6636 89.4584 56.6636 88.4822 57.64L79.2144 66.9078H66.2855C65.6224 66.9079 64.9866 67.1712 64.5177 67.64L61.5 70.6578L65.25 74.4078L67.75 71.9078H79.7323C80.225 71.9092 80.713 71.8128 81.1682 71.6242C81.6233 71.4357 82.0365 71.1587 82.3839 70.8094L92.0178 61.1755C92.9941 60.1992 92.9941 58.6163 92.0177 57.64Z" fill="#F0915A"/>
<path d="M74 65.2414H73.1667C72.8352 65.2414 72.5173 65.1097 72.2829 64.8753C72.0484 64.6409 71.9167 64.3229 71.9167 63.9914V62.3247C71.9167 61.9932 72.0484 61.6752 72.2829 61.4408C72.5173 61.2064 72.8352 61.0747 73.1667 61.0747H74C75.1507 61.0747 76.0833 62.0075 76.0833 63.158C76.0833 64.3088 75.1507 65.2414 74 65.2414Z" fill="#F0915A"/>
<path d="M54.8839 64.042L61.5 70.6581L55.25 76.9081H40.25L53.1161 64.042C53.2322 63.9259 53.37 63.8338 53.5216 63.771C53.6733 63.7081 53.8358 63.6758 54 63.6758C54.1642 63.6758 54.3267 63.7081 54.4784 63.771C54.63 63.8338 54.7678 63.9259 54.8839 64.042Z" fill="#555A6E"/>
<path d="M61.5 70.6582L65.6161 74.7743C65.7322 74.8904 65.8243 75.0282 65.8871 75.1798C65.9499 75.3315 65.9822 75.494 65.9822 75.6582C65.9822 75.8224 65.9499 75.9849 65.8871 76.1366C65.8243 76.2882 65.7322 76.426 65.6161 76.5421L65.25 76.9082H55.25L61.5 70.6582Z" fill="#463C4B"/>
<path d="M72.75 49.4082C83.7957 49.4082 92.75 40.4539 92.75 29.4082C92.75 18.3625 83.7957 9.4082 72.75 9.4082C61.7043 9.4082 52.75 18.3625 52.75 29.4082C52.75 40.4539 61.7043 49.4082 72.75 49.4082Z" fill="#00D2D2"/>
<path d="M72.75 44.4082C81.0343 44.4082 87.75 37.6925 87.75 29.4082C87.75 21.1239 81.0343 14.4082 72.75 14.4082C64.4657 14.4082 57.75 21.1239 57.75 29.4082C57.75 37.6925 64.4657 44.4082 72.75 44.4082Z" fill="#289BC3"/>
<path d="M73.8709 18.9795L76.4823 24.2709L82.3217 25.1194C83.347 25.2683 83.7564 26.5283 83.0145 27.2515L78.789 31.3703L79.7865 37.1861C79.9617 38.2072 78.8898 38.9859 77.9728 38.5037L72.75 35.7579L67.527 38.5037C66.61 38.9859 65.5383 38.2072 65.7133 37.1861L66.7108 31.3703L62.4853 27.2515C61.7434 26.5284 62.1528 25.2684 63.1781 25.1194L69.0175 24.2709L71.6289 18.9795C72.0876 18.0504 73.4123 18.0504 73.8709 18.9795Z" fill="#D7E6F0"/>
<path d="M105.25 31.908H102.75C101.369 31.908 100.25 30.7886 100.25 29.408C100.25 28.0274 101.369 26.908 102.75 26.908H105.25C106.631 26.908 107.75 28.0274 107.75 29.408C107.75 30.7886 106.631 31.908 105.25 31.908ZM90.2477 10.2577C89.8236 10.2577 89.3937 10.1497 89 9.92235C87.8042 9.23204 87.3945 7.70297 88.085 6.50735L89.335 4.34235C90.0253 3.14673 91.5542 2.73688 92.75 3.42735C93.9458 4.11766 94.3555 5.64672 93.665 6.84235L92.415 9.00735C91.952 9.80938 91.1117 10.2577 90.2477 10.2577ZM91.5023 55.7241C90.6383 55.7241 89.798 55.2758 89.3348 54.4736L88.0848 52.3086C87.3945 51.1128 87.8042 49.5839 88.9998 48.8936C90.1956 48.2031 91.7245 48.613 92.4148 49.8086L93.6648 51.9736C94.3552 53.1694 93.9455 54.6983 92.7498 55.3886C92.3708 55.6083 91.9405 55.7241 91.5023 55.7241ZM47.75 31.908H45.25C43.8694 31.908 42.75 30.7886 42.75 29.408C42.75 28.0274 43.8694 26.908 45.25 26.908H47.75C49.1306 26.908 50.25 28.0274 50.25 29.408C50.25 30.7886 49.1306 31.908 47.75 31.908ZM58.9977 55.7241C58.5736 55.7241 58.1438 55.6161 57.75 55.3888C56.5542 54.6984 56.1445 53.1694 56.835 51.9738L58.085 49.8088C58.7753 48.6131 60.3044 48.2033 61.5 48.8938C62.6956 49.5842 63.1055 51.1131 62.415 52.3088L61.165 54.4738C60.702 55.2756 59.8617 55.7241 58.9977 55.7241ZM60.2523 10.2577C59.3883 10.2577 58.548 9.80938 58.0848 9.00719L56.8348 6.84219C56.1445 5.64641 56.5542 4.11751 57.7498 3.42719C58.9456 2.73673 60.4745 3.14657 61.1648 4.34219L62.4148 6.50719C63.1052 7.70297 62.6955 9.23188 61.4998 9.92219C61.1208 10.142 60.6905 10.2577 60.2523 10.2577Z" fill="#00D2D2"/>
<path d="M10.6364 92.3636V104H9.27273L2.93182 94.8636H2.81818V104H1.40909V92.3636H2.77273L9.13636 101.523H9.25V92.3636H10.6364ZM16.5796 104.182C15.7917 104.182 15.1004 103.994 14.5057 103.619C13.9148 103.244 13.4527 102.72 13.1194 102.045C12.7898 101.371 12.6251 100.583 12.6251 99.6818C12.6251 98.7727 12.7898 97.9792 13.1194 97.3011C13.4527 96.6231 13.9148 96.0966 14.5057 95.7216C15.1004 95.3466 15.7917 95.1591 16.5796 95.1591C17.3675 95.1591 18.0569 95.3466 18.6478 95.7216C19.2425 96.0966 19.7046 96.6231 20.0341 97.3011C20.3675 97.9792 20.5341 98.7727 20.5341 99.6818C20.5341 100.583 20.3675 101.371 20.0341 102.045C19.7046 102.72 19.2425 103.244 18.6478 103.619C18.0569 103.994 17.3675 104.182 16.5796 104.182ZM16.5796 102.977C17.1781 102.977 17.6705 102.824 18.0569 102.517C18.4432 102.21 18.7292 101.807 18.9148 101.307C19.1004 100.807 19.1932 100.265 19.1932 99.6818C19.1932 99.0985 19.1004 98.5549 18.9148 98.0511C18.7292 97.5473 18.4432 97.1402 18.0569 96.8295C17.6705 96.5189 17.1781 96.3636 16.5796 96.3636C15.9811 96.3636 15.4887 96.5189 15.1023 96.8295C14.716 97.1402 14.43 97.5473 14.2444 98.0511C14.0588 98.5549 13.966 99.0985 13.966 99.6818C13.966 100.265 14.0588 100.807 14.2444 101.307C14.43 101.807 14.716 102.21 15.1023 102.517C15.4887 102.824 15.9811 102.977 16.5796 102.977ZM36.1465 96H34.7374C34.6541 95.5947 34.5082 95.2386 34.2999 94.9318C34.0953 94.625 33.8453 94.3674 33.5499 94.1591C33.2582 93.947 32.9344 93.7879 32.5783 93.6818C32.2222 93.5758 31.851 93.5227 31.4647 93.5227C30.7601 93.5227 30.1219 93.7008 29.5499 94.0568C28.9817 94.4129 28.5291 94.9375 28.1919 95.6307C27.8586 96.3239 27.6919 97.1742 27.6919 98.1818C27.6919 99.1894 27.8586 100.04 28.1919 100.733C28.5291 101.426 28.9817 101.951 29.5499 102.307C30.1219 102.663 30.7601 102.841 31.4647 102.841C31.851 102.841 32.2222 102.788 32.5783 102.682C32.9344 102.576 33.2582 102.419 33.5499 102.21C33.8453 101.998 34.0953 101.739 34.2999 101.432C34.5082 101.121 34.6541 100.765 34.7374 100.364H36.1465C36.0404 100.958 35.8472 101.491 35.5669 101.96C35.2866 102.43 34.9381 102.83 34.5215 103.159C34.1048 103.485 33.637 103.733 33.1181 103.903C32.6029 104.074 32.0518 104.159 31.4647 104.159C30.4722 104.159 29.5897 103.917 28.8169 103.432C28.0442 102.947 27.4363 102.258 26.9931 101.364C26.5499 100.47 26.3283 99.4091 26.3283 98.1818C26.3283 96.9545 26.5499 95.8939 26.9931 95C27.4363 94.1061 28.0442 93.4167 28.8169 92.9318C29.5897 92.447 30.4722 92.2045 31.4647 92.2045C32.0518 92.2045 32.6029 92.2898 33.1181 92.4602C33.637 92.6307 34.1048 92.8807 34.5215 93.2102C34.9381 93.536 35.2866 93.9337 35.5669 94.4034C35.8472 94.8693 36.0404 95.4015 36.1465 96ZM46.138 96C46.013 95.6174 45.8482 95.2746 45.6437 94.9716C45.4429 94.6648 45.2024 94.4034 44.9221 94.1875C44.6456 93.9716 44.3312 93.8068 43.9789 93.6932C43.6266 93.5795 43.2403 93.5227 42.8198 93.5227C42.1304 93.5227 41.5035 93.7008 40.9391 94.0568C40.3748 94.4129 39.9259 94.9375 39.5926 95.6307C39.2592 96.3239 39.0926 97.1742 39.0926 98.1818C39.0926 99.1894 39.2611 100.04 39.5982 100.733C39.9354 101.426 40.3918 101.951 40.9676 102.307C41.5433 102.663 42.191 102.841 42.9107 102.841C43.5774 102.841 44.1645 102.699 44.6721 102.415C45.1835 102.127 45.5812 101.722 45.8653 101.199C46.1532 100.672 46.2971 100.053 46.2971 99.3409L46.7289 99.4318H43.2289V98.1818H47.6607V99.4318C47.6607 100.39 47.4562 101.223 47.0471 101.932C46.6418 102.64 46.0812 103.189 45.3653 103.58C44.6532 103.966 43.835 104.159 42.9107 104.159C41.8804 104.159 40.9751 103.917 40.1948 103.432C39.4183 102.947 38.8123 102.258 38.3766 101.364C37.9448 100.47 37.7289 99.4091 37.7289 98.1818C37.7289 97.2614 37.852 96.4337 38.0982 95.6989C38.3482 94.9602 38.7005 94.3314 39.1551 93.8125C39.6096 93.2936 40.1475 92.8958 40.7687 92.6193C41.3899 92.3428 42.0736 92.2045 42.8198 92.2045C43.4335 92.2045 44.0054 92.2973 44.5357 92.483C45.0698 92.6648 45.5452 92.9242 45.9619 93.2614C46.3823 93.5947 46.7327 93.9943 47.013 94.4602C47.2933 94.9223 47.4865 95.4356 47.5926 96H46.138ZM53.9123 107.273V95.2727H55.2077V96.6591H55.3668C55.4653 96.5076 55.6017 96.3144 55.7759 96.0795C55.9539 95.8409 56.2077 95.6288 56.5373 95.4432C56.8706 95.2538 57.3214 95.1591 57.8895 95.1591C58.6244 95.1591 59.2721 95.3428 59.8327 95.7102C60.3933 96.0777 60.8308 96.5985 61.1452 97.2727C61.4596 97.947 61.6168 98.7424 61.6168 99.6591C61.6168 100.583 61.4596 101.384 61.1452 102.062C60.8308 102.737 60.3952 103.259 59.8384 103.631C59.2816 103.998 58.6395 104.182 57.9123 104.182C57.3517 104.182 56.9028 104.089 56.5657 103.903C56.2286 103.714 55.9691 103.5 55.7873 103.261C55.6055 103.019 55.4653 102.818 55.3668 102.659H55.2532V107.273H53.9123ZM55.2305 99.6364C55.2305 100.295 55.327 100.877 55.5202 101.381C55.7134 101.881 55.9956 102.273 56.3668 102.557C56.738 102.837 57.1926 102.977 57.7305 102.977C58.2911 102.977 58.7589 102.83 59.1339 102.534C59.5127 102.235 59.7967 101.833 59.9861 101.33C60.1793 100.822 60.2759 100.258 60.2759 99.6364C60.2759 99.0227 60.1812 98.4697 59.9918 97.9773C59.8062 97.4811 59.524 97.089 59.1452 96.8011C58.7702 96.5095 58.2986 96.3636 57.7305 96.3636C57.185 96.3636 56.7267 96.5019 56.3555 96.7784C55.9842 97.0511 55.7039 97.4337 55.5145 97.9261C55.3252 98.4148 55.2305 98.9848 55.2305 99.6364ZM66.9677 104.182C66.1798 104.182 65.4886 103.994 64.8939 103.619C64.303 103.244 63.8408 102.72 63.5075 102.045C63.178 101.371 63.0132 100.583 63.0132 99.6818C63.0132 98.7727 63.178 97.9792 63.5075 97.3011C63.8408 96.6231 64.303 96.0966 64.8939 95.7216C65.4886 95.3466 66.1798 95.1591 66.9677 95.1591C67.7556 95.1591 68.445 95.3466 69.0359 95.7216C69.6306 96.0966 70.0927 96.6231 70.4223 97.3011C70.7556 97.9792 70.9223 98.7727 70.9223 99.6818C70.9223 100.583 70.7556 101.371 70.4223 102.045C70.0927 102.72 69.6306 103.244 69.0359 103.619C68.445 103.994 67.7556 104.182 66.9677 104.182ZM66.9677 102.977C67.5662 102.977 68.0586 102.824 68.445 102.517C68.8314 102.21 69.1173 101.807 69.303 101.307C69.4886 100.807 69.5814 100.265 69.5814 99.6818C69.5814 99.0985 69.4886 98.5549 69.303 98.0511C69.1173 97.5473 68.8314 97.1402 68.445 96.8295C68.0586 96.5189 67.5662 96.3636 66.9677 96.3636C66.3692 96.3636 65.8768 96.5189 65.4905 96.8295C65.1041 97.1402 64.8181 97.5473 64.6325 98.0511C64.4469 98.5549 64.3541 99.0985 64.3541 99.6818C64.3541 100.265 64.4469 100.807 64.6325 101.307C64.8181 101.807 65.1041 102.21 65.4905 102.517C65.8768 102.824 66.3692 102.977 66.9677 102.977ZM72.7291 104V95.2727H74.0701V104H72.7291ZM73.411 93.8182C73.1496 93.8182 72.9242 93.7292 72.7348 93.5511C72.5492 93.3731 72.4564 93.1591 72.4564 92.9091C72.4564 92.6591 72.5492 92.4451 72.7348 92.267C72.9242 92.089 73.1496 92 73.411 92C73.6723 92 73.8958 92.089 74.0814 92.267C74.2708 92.4451 74.3655 92.6591 74.3655 92.9091C74.3655 93.1591 74.2708 93.3731 74.0814 93.5511C73.8958 93.7292 73.6723 93.8182 73.411 93.8182ZM77.6269 98.75V104H76.286V95.2727H77.5815V96.6364H77.6951C77.8997 96.1932 78.2103 95.8371 78.6269 95.5682C79.0436 95.2955 79.5815 95.1591 80.2406 95.1591C80.8315 95.1591 81.3485 95.2803 81.7917 95.5227C82.2349 95.7614 82.5796 96.125 82.8258 96.6136C83.072 97.0985 83.1951 97.7121 83.1951 98.4545V104H81.8542V98.5455C81.8542 97.8598 81.6762 97.3258 81.3201 96.9432C80.964 96.5568 80.4754 96.3636 79.8542 96.3636C79.4262 96.3636 79.0436 96.4564 78.7065 96.642C78.3731 96.8277 78.1099 97.0985 77.9167 97.4545C77.7235 97.8106 77.6269 98.2424 77.6269 98.75ZM89.2009 95.2727V96.4091H84.6781V95.2727H89.2009ZM85.9963 93.1818H87.3372V101.5C87.3372 101.879 87.3921 102.163 87.502 102.352C87.6156 102.538 87.7596 102.663 87.9338 102.727C88.1118 102.788 88.2993 102.818 88.4963 102.818C88.644 102.818 88.7652 102.811 88.8599 102.795C88.9546 102.777 89.0304 102.761 89.0872 102.75L89.3599 103.955C89.269 103.989 89.1421 104.023 88.9793 104.057C88.8164 104.095 88.6099 104.114 88.3599 104.114C87.9812 104.114 87.6099 104.032 87.2463 103.869C86.8865 103.706 86.5872 103.458 86.3486 103.125C86.1137 102.792 85.9963 102.371 85.9963 101.864V93.1818ZM97.0035 97.2273L95.7989 97.5682C95.7232 97.3674 95.6114 97.1723 95.4637 96.983C95.3198 96.7898 95.1228 96.6307 94.8728 96.5057C94.6228 96.3807 94.3027 96.3182 93.9126 96.3182C93.3785 96.3182 92.9334 96.4413 92.5773 96.6875C92.2251 96.9299 92.0489 97.2386 92.0489 97.6136C92.0489 97.947 92.1701 98.2102 92.4126 98.4034C92.655 98.5966 93.0338 98.7576 93.5489 98.8864L94.8444 99.2045C95.6247 99.3939 96.2061 99.6837 96.5887 100.074C96.9713 100.46 97.1626 100.958 97.1626 101.568C97.1626 102.068 97.0186 102.515 96.7307 102.909C96.4466 103.303 96.0489 103.614 95.5376 103.841C95.0262 104.068 94.4315 104.182 93.7535 104.182C92.8633 104.182 92.1266 103.989 91.5432 103.602C90.9599 103.216 90.5906 102.652 90.4353 101.909L91.708 101.591C91.8292 102.061 92.0584 102.413 92.3955 102.648C92.7364 102.883 93.1815 103 93.7307 103C94.3557 103 94.852 102.867 95.2194 102.602C95.5906 102.333 95.7762 102.011 95.7762 101.636C95.7762 101.333 95.6701 101.08 95.458 100.875C95.2459 100.667 94.9201 100.511 94.4807 100.409L93.0262 100.068C92.227 99.8788 91.6398 99.5852 91.2648 99.1875C90.8936 98.786 90.708 98.2841 90.708 97.6818C90.708 97.1894 90.8463 96.7538 91.1228 96.375C91.4031 95.9962 91.7838 95.6989 92.2648 95.483C92.7497 95.267 93.2989 95.1591 93.9126 95.1591C94.7762 95.1591 95.4542 95.3485 95.9466 95.7273C96.4429 96.1061 96.7951 96.6061 97.0035 97.2273ZM106.86 104.182C106.019 104.182 105.294 103.996 104.684 103.625C104.078 103.25 103.61 102.727 103.281 102.057C102.955 101.383 102.792 100.598 102.792 99.7045C102.792 98.8106 102.955 98.0227 103.281 97.3409C103.61 96.6553 104.068 96.1212 104.656 95.7386C105.246 95.3523 105.936 95.1591 106.724 95.1591C107.178 95.1591 107.627 95.2348 108.07 95.3864C108.514 95.5379 108.917 95.7841 109.281 96.125C109.644 96.4621 109.934 96.9091 110.15 97.4659C110.366 98.0227 110.474 98.7083 110.474 99.5227V100.091H103.746V98.9318H109.11C109.11 98.4394 109.012 98 108.815 97.6136C108.621 97.2273 108.345 96.9223 107.985 96.6989C107.629 96.4754 107.209 96.3636 106.724 96.3636C106.19 96.3636 105.728 96.4962 105.337 96.7614C104.951 97.0227 104.654 97.3636 104.445 97.7841C104.237 98.2045 104.133 98.6553 104.133 99.1364V99.9091C104.133 100.568 104.246 101.127 104.474 101.585C104.705 102.04 105.025 102.386 105.434 102.625C105.843 102.86 106.318 102.977 106.86 102.977C107.212 102.977 107.531 102.928 107.815 102.83C108.103 102.727 108.351 102.576 108.559 102.375C108.767 102.17 108.928 101.917 109.042 101.614L110.337 101.977C110.201 102.417 109.972 102.803 109.65 103.136C109.328 103.466 108.93 103.723 108.457 103.909C107.983 104.091 107.451 104.182 106.86 104.182ZM114.842 104.205C114.289 104.205 113.787 104.1 113.336 103.892C112.885 103.68 112.527 103.375 112.262 102.977C111.997 102.576 111.864 102.091 111.864 101.523C111.864 101.023 111.963 100.617 112.16 100.307C112.357 99.9924 112.62 99.7462 112.95 99.5682C113.279 99.3902 113.643 99.2576 114.041 99.1705C114.442 99.0795 114.845 99.0076 115.251 98.9545C115.781 98.8864 116.211 98.8352 116.541 98.8011C116.874 98.7633 117.116 98.7008 117.268 98.6136C117.423 98.5265 117.501 98.375 117.501 98.1591V98.1136C117.501 97.553 117.347 97.1174 117.041 96.8068C116.738 96.4962 116.277 96.3409 115.66 96.3409C115.02 96.3409 114.518 96.4811 114.154 96.7614C113.791 97.0417 113.535 97.3409 113.387 97.6591L112.114 97.2045C112.342 96.6742 112.645 96.2614 113.024 95.9659C113.406 95.6667 113.823 95.4583 114.274 95.3409C114.728 95.2197 115.175 95.1591 115.614 95.1591C115.895 95.1591 116.217 95.1932 116.58 95.2614C116.948 95.3258 117.302 95.4602 117.643 95.6648C117.988 95.8693 118.274 96.178 118.501 96.5909C118.728 97.0038 118.842 97.5568 118.842 98.25V104H117.501V102.818H117.433C117.342 103.008 117.19 103.21 116.978 103.426C116.766 103.642 116.484 103.826 116.131 103.977C115.779 104.129 115.349 104.205 114.842 104.205ZM115.046 103C115.577 103 116.024 102.896 116.387 102.688C116.755 102.479 117.031 102.21 117.217 101.881C117.406 101.551 117.501 101.205 117.501 100.841V99.6136C117.444 99.6818 117.319 99.7443 117.126 99.8011C116.936 99.8542 116.717 99.9015 116.467 99.9432C116.22 99.9811 115.98 100.015 115.745 100.045C115.514 100.072 115.327 100.095 115.183 100.114C114.834 100.159 114.508 100.233 114.205 100.335C113.906 100.434 113.664 100.583 113.478 100.784C113.296 100.981 113.205 101.25 113.205 101.591C113.205 102.057 113.378 102.409 113.722 102.648C114.071 102.883 114.512 103 115.046 103ZM121.049 104V95.2727H122.345V96.5909H122.436C122.595 96.1591 122.882 95.8087 123.299 95.5398C123.716 95.2708 124.186 95.1364 124.708 95.1364C124.807 95.1364 124.93 95.1383 125.078 95.142C125.225 95.1458 125.337 95.1515 125.413 95.1591V96.5227C125.367 96.5114 125.263 96.4943 125.1 96.4716C124.941 96.4451 124.773 96.4318 124.595 96.4318C124.17 96.4318 123.792 96.5208 123.458 96.6989C123.129 96.8731 122.867 97.1155 122.674 97.4261C122.485 97.733 122.39 98.0833 122.39 98.4773V104H121.049ZM128.103 98.75V104H126.762V95.2727H128.058V96.6364H128.171C128.376 96.1932 128.687 95.8371 129.103 95.5682C129.52 95.2955 130.058 95.1591 130.717 95.1591C131.308 95.1591 131.825 95.2803 132.268 95.5227C132.711 95.7614 133.056 96.125 133.302 96.6136C133.548 97.0985 133.671 97.7121 133.671 98.4545V104H132.33V98.5455C132.33 97.8598 132.152 97.3258 131.796 96.9432C131.44 96.5568 130.952 96.3636 130.33 96.3636C129.902 96.3636 129.52 96.4564 129.183 96.642C128.849 96.8277 128.586 97.0985 128.393 97.4545C128.2 97.8106 128.103 98.2424 128.103 98.75ZM139.541 104.182C138.7 104.182 137.974 103.996 137.365 103.625C136.759 103.25 136.291 102.727 135.961 102.057C135.635 101.383 135.473 100.598 135.473 99.7045C135.473 98.8106 135.635 98.0227 135.961 97.3409C136.291 96.6553 136.749 96.1212 137.336 95.7386C137.927 95.3523 138.616 95.1591 139.404 95.1591C139.859 95.1591 140.308 95.2348 140.751 95.3864C141.194 95.5379 141.598 95.7841 141.961 96.125C142.325 96.4621 142.615 96.9091 142.831 97.4659C143.046 98.0227 143.154 98.7083 143.154 99.5227V100.091H136.427V98.9318H141.791C141.791 98.4394 141.692 98 141.495 97.6136C141.302 97.2273 141.026 96.9223 140.666 96.6989C140.31 96.4754 139.889 96.3636 139.404 96.3636C138.87 96.3636 138.408 96.4962 138.018 96.7614C137.632 97.0227 137.334 97.3636 137.126 97.7841C136.918 98.2045 136.813 98.6553 136.813 99.1364V99.9091C136.813 100.568 136.927 101.127 137.154 101.585C137.385 102.04 137.706 102.386 138.115 102.625C138.524 102.86 138.999 102.977 139.541 102.977C139.893 102.977 140.211 102.928 140.495 102.83C140.783 102.727 141.031 102.576 141.24 102.375C141.448 102.17 141.609 101.917 141.723 101.614L143.018 101.977C142.882 102.417 142.652 102.803 142.331 103.136C142.009 103.466 141.611 103.723 141.137 103.909C140.664 104.091 140.132 104.182 139.541 104.182ZM148.25 104.182C147.522 104.182 146.88 103.998 146.323 103.631C145.767 103.259 145.331 102.737 145.017 102.062C144.702 101.384 144.545 100.583 144.545 99.6591C144.545 98.7424 144.702 97.947 145.017 97.2727C145.331 96.5985 145.769 96.0777 146.329 95.7102C146.89 95.3428 147.537 95.1591 148.272 95.1591C148.841 95.1591 149.289 95.2538 149.619 95.4432C149.952 95.6288 150.206 95.8409 150.38 96.0795C150.558 96.3144 150.697 96.5076 150.795 96.6591H150.909V92.3636H152.25V104H150.954V102.659H150.795C150.697 102.818 150.556 103.019 150.375 103.261C150.193 103.5 149.933 103.714 149.596 103.903C149.259 104.089 148.81 104.182 148.25 104.182ZM148.431 102.977C148.969 102.977 149.424 102.837 149.795 102.557C150.166 102.273 150.448 101.881 150.642 101.381C150.835 100.877 150.931 100.295 150.931 99.6364C150.931 98.9848 150.837 98.4148 150.647 97.9261C150.458 97.4337 150.178 97.0511 149.806 96.7784C149.435 96.5019 148.977 96.3636 148.431 96.3636C147.863 96.3636 147.39 96.5095 147.011 96.8011C146.636 97.089 146.354 97.4811 146.164 97.9773C145.979 98.4697 145.886 99.0227 145.886 99.6364C145.886 100.258 145.981 100.822 146.17 101.33C146.363 101.833 146.647 102.235 147.022 102.534C147.401 102.83 147.871 102.977 148.431 102.977Z" fill="#00D2D2"/>
</svg>
