<svg width="30" height="30" viewBox="0 0 30 30" fill="none" xmlns="http://www.w3.org/2000/svg">
<g clip-path="url(#clip0_80_47)">
<path d="M30 15C30 23.2844 23.2844 30 15 30C6.71561 30 0 23.2844 0 15C0 6.71561 6.71561 0 15 0C23.2844 0 30 6.71561 30 15Z" fill="#CC1564"/>
<path d="M15 0V30C23.2844 30 30 23.2844 30 15C30 6.71561 23.2844 0 15 0Z" fill="#AC1354"/>
<path d="M17.0364 10.1077C15.5887 6.53297 13.2813 3.31875 10.2527 0.763301C8.06894 1.4891 6.06809 2.71863 4.39336 4.39336C3.4868 5.2998 2.71131 6.30229 2.0748 7.3773C5.60256 9.32004 9.59268 10.3453 13.6473 10.3453C14.7899 10.3453 15.9215 10.2647 17.0364 10.1077ZM11.5331 18.8258C13.8185 17.7922 16.2098 17.1073 18.6754 16.777C18.5103 15.0847 18.1656 13.4147 17.6473 11.7952C16.3238 12.0005 14.9866 12.1034 13.6473 12.1031C9.31277 12.1031 5.04615 11.0106 1.26984 8.94035C0.437637 10.8245 0 12.8785 0 15C0 18.5378 1.21717 21.8885 3.45246 24.5746C5.76258 22.14 8.47822 20.2073 11.5331 18.8258ZM18.8024 9.79131C21.7747 9.14268 24.5975 7.93078 27.1463 6.19447C26.6807 5.55497 26.1659 4.95277 25.6066 4.39336C22.7735 1.56035 19.0066 5.63604e-08 15 5.63604e-08C14.0985 -7.76134e-05 13.1988 0.0801219 12.3115 0.239649C15.201 2.92236 17.4049 6.1926 18.8024 9.79131ZM20.4247 16.6033C20.9965 16.5661 21.5693 16.5474 22.1423 16.5475C24.741 16.5475 27.301 16.9327 29.7596 17.6924C29.9196 16.8039 30.0001 15.9028 30 15C30 12.3928 29.3388 9.88746 28.0966 7.67443C25.4299 9.48393 22.4851 10.7588 19.3859 11.4624C19.9063 13.1362 20.2544 14.8588 20.4247 16.6033ZM18.7825 18.5371C16.5305 18.851 14.3461 19.4827 12.2575 20.4275C9.37887 21.7291 6.82342 23.5565 4.65475 25.8616C7.45629 28.5331 11.1154 30 15 30C15.4086 30 15.8143 29.9828 16.2172 29.9508C17.9242 26.5775 18.79 22.9362 18.79 19.1256C18.79 18.9292 18.7873 18.733 18.7825 18.5371ZM20.5362 18.3577C20.5438 18.6132 20.5479 18.869 20.5479 19.1256C20.5479 22.8003 19.7969 26.329 18.3146 29.6347C21.0555 29.0195 23.5719 27.6414 25.6066 25.6066C27.3683 23.8449 28.6375 21.722 29.3456 19.4053C27.0231 18.6758 24.6019 18.3053 22.1423 18.3053C21.6039 18.3053 21.0683 18.3229 20.5362 18.3577Z" fill="#FC5B94"/>
<path d="M15 6.17297V10.307C15.6813 10.2691 16.3607 10.2026 17.0364 10.1079C16.4806 8.73617 15.7989 7.4189 15 6.17297ZM17.6473 11.7952C16.7701 11.9309 15.8865 12.0217 15 12.0671V17.5484C16.2045 17.2011 17.433 16.9433 18.6754 16.777C18.5103 15.0847 18.1656 13.4147 17.6473 11.7952ZM27.1463 6.19447C26.6807 5.55497 26.1659 4.95277 25.6066 4.39336C22.7735 1.56035 19.0066 0 15 0V3.14965C16.5917 5.16143 17.8734 7.40011 18.8024 9.79131C21.7747 9.14268 24.5975 7.93078 27.1463 6.19447ZM28.0966 7.67443C25.4299 9.48393 22.4851 10.7588 19.3859 11.4624C19.9063 13.1362 20.2544 14.8588 20.4247 16.6033C20.9965 16.5661 21.5693 16.5474 22.1423 16.5475C24.741 16.5475 27.3011 16.9324 29.7596 17.6921C29.9196 16.8037 30.0001 15.9027 30 15C30 12.3928 29.3388 9.88746 28.0966 7.67443ZM18.7825 18.5371C17.5007 18.7156 16.2356 18.9989 15 19.384V30C15.4086 30 15.8143 29.9828 16.2172 29.9508C17.9242 26.5775 18.79 22.9362 18.79 19.1256C18.79 18.9292 18.7873 18.733 18.7825 18.5371ZM20.5362 18.3577C20.5438 18.6132 20.5479 18.869 20.5479 19.1256C20.5479 22.8003 19.7969 26.329 18.3146 29.6347C21.0555 29.0195 23.5719 27.6414 25.6066 25.6066C27.3683 23.8449 28.6375 21.722 29.3456 19.4053C27.0231 18.6758 24.6019 18.3053 22.1423 18.3053C21.6039 18.3053 21.0683 18.3229 20.5362 18.3577Z" fill="#FC3E81"/>
</g>
<defs>
<clipPath id="clip0_80_47">
<rect width="30" height="30" fill="white"/>
</clipPath>
</defs>
</svg>
