<svg width="100" height="100" viewBox="0 0 100 100" fill="none" xmlns="http://www.w3.org/2000/svg">
<path d="M62.5 9.375H50C49.5856 9.375 49.1882 9.53962 48.8951 9.83265C48.6021 10.1257 48.4375 10.5231 48.4375 10.9375V26.5625C48.4375 26.9769 48.6021 27.3743 48.8951 27.6674C49.1882 27.9604 49.5856 28.125 50 28.125C50.4144 28.125 50.8118 27.9604 51.1049 27.6674C51.3979 27.3743 51.5625 26.9769 51.5625 26.5625V20.3125H62.5C62.9144 20.3125 63.3118 20.1479 63.6049 19.8549C63.8979 19.5618 64.0625 19.1644 64.0625 18.75V10.9375C64.0625 10.5231 63.8979 10.1257 63.6049 9.83265C63.3118 9.53962 62.9144 9.375 62.5 9.375ZM60.9375 17.1875H51.5625V12.5H60.9375V17.1875Z" fill="#23C3F2"/>
<path opacity="0.5" d="M9.375 23.4375V89.0625H79.6875V87.5H70.3125V59.375H79.6875V56.25H70.3125V53.125H79.6875V23.4375H9.375ZM12.5 57.8125V54.6875H29.6875V57.8125H12.5ZM29.6875 43.75V41.4844L50 28.4219L70.3125 41.4844V43.75H29.6875ZM15.625 87.5V60.9375H29.6875V87.5H15.625ZM25 64.0625H20.3125C19.8981 64.0625 19.5007 64.2271 19.2076 64.5201C18.9146 64.8132 18.75 65.2106 18.75 65.625C18.75 66.0394 18.9146 66.4368 19.2076 66.7299C19.5007 67.0229 19.8981 67.1875 20.3125 67.1875H25C25.4144 67.1875 25.8118 67.0229 26.1049 66.7299C26.3979 66.4368 26.5625 66.0394 26.5625 65.625C26.5625 65.2106 26.3979 64.8132 26.1049 64.5201C25.8118 64.2271 25.4144 64.0625 25 64.0625ZM25 71.875H20.3125C19.8981 71.875 19.5007 72.0396 19.2076 72.3326C18.9146 72.6257 18.75 73.0231 18.75 73.4375C18.75 73.8519 18.9146 74.2493 19.2076 74.5424C19.5007 74.8354 19.8981 75 20.3125 75H25C25.4144 75 25.8118 74.8354 26.1049 74.5424C26.3979 74.2493 26.5625 73.8519 26.5625 73.4375C26.5625 73.0231 26.3979 72.6257 26.1049 72.3326C25.8118 72.0396 25.4144 71.875 25 71.875ZM25 79.6875H20.3125C19.8981 79.6875 19.5007 79.8521 19.2076 80.1451C18.9146 80.4382 18.75 80.8356 18.75 81.25C18.75 81.6644 18.9146 82.0618 19.2076 82.3549C19.5007 82.6479 19.8981 82.8125 20.3125 82.8125H25C25.4144 82.8125 25.8118 82.6479 26.1049 82.3549C26.3979 82.0618 26.5625 81.6644 26.5625 81.25C26.5625 80.8356 26.3979 80.4382 26.1049 80.1451C25.8118 79.8521 25.4144 79.6875 25 79.6875ZM75 64.0625C74.5856 64.0625 74.1882 64.2271 73.8951 64.5201C73.6021 64.8132 73.4375 65.2106 73.4375 65.625C73.4375 66.0394 73.6021 66.4368 73.8951 66.7299C74.1882 67.0229 74.5856 67.1875 75 67.1875H79.6875V64.0625H75ZM75 71.875C74.5856 71.875 74.1882 72.0396 73.8951 72.3326C73.6021 72.6257 73.4375 73.0231 73.4375 73.4375C73.4375 73.8519 73.6021 74.2493 73.8951 74.5424C74.1882 74.8354 74.5856 75 75 75H79.6875V71.875H75ZM75 79.6875C74.5856 79.6875 74.1882 79.8521 73.8951 80.1451C73.6021 80.4382 73.4375 80.8356 73.4375 81.25C73.4375 81.6644 73.6021 82.0618 73.8951 82.3549C74.1882 82.6479 74.5856 82.8125 75 82.8125H79.6875V79.6875H75Z" fill="url(#paint0_linear_86_169)"/>
<path d="M50 54.6875C48.7639 54.6875 47.5555 55.0541 46.5277 55.7408C45.4999 56.4276 44.6988 57.4037 44.2258 58.5457C43.7527 59.6878 43.6289 60.9444 43.8701 62.1568C44.1112 63.3692 44.7065 64.4828 45.5806 65.3569C46.4547 66.231 47.5683 66.8263 48.7807 67.0674C49.9931 67.3086 51.2497 67.1848 52.3918 66.7117C53.5338 66.2387 54.5099 65.4376 55.1967 64.4098C55.8834 63.382 56.25 62.1736 56.25 60.9375C56.25 59.2799 55.5915 57.6902 54.4194 56.5181C53.2473 55.346 51.6576 54.6875 50 54.6875ZM50 64.0625C49.3819 64.0625 48.7777 63.8792 48.2638 63.5358C47.7499 63.1925 47.3494 62.7044 47.1129 62.1334C46.8764 61.5624 46.8145 60.934 46.935 60.3278C47.0556 59.7216 47.3533 59.1648 47.7903 58.7278C48.2273 58.2907 48.7842 57.9931 49.3903 57.8725C49.9965 57.752 50.6249 57.8139 51.1959 58.0504C51.7669 58.2869 52.255 58.6874 52.5983 59.2013C52.9417 59.7152 53.125 60.3194 53.125 60.9375C53.125 61.7663 52.7958 62.5612 52.2097 63.1472C51.6237 63.7333 50.8288 64.0625 50 64.0625ZM81.25 65.625C81.25 66.0394 81.0854 66.4368 80.7924 66.7299C80.4993 67.0229 80.1019 67.1875 79.6875 67.1875H75C74.5856 67.1875 74.1882 67.0229 73.8951 66.7299C73.6021 66.4368 73.4375 66.0394 73.4375 65.625C73.4375 65.2106 73.6021 64.8132 73.8951 64.5201C74.1882 64.2271 74.5856 64.0625 75 64.0625H79.6875C80.1019 64.0625 80.4993 64.2271 80.7924 64.5201C81.0854 64.8132 81.25 65.2106 81.25 65.625ZM81.25 73.4375C81.25 73.8519 81.0854 74.2493 80.7924 74.5424C80.4993 74.8354 80.1019 75 79.6875 75H75C74.5856 75 74.1882 74.8354 73.8951 74.5424C73.6021 74.2493 73.4375 73.8519 73.4375 73.4375C73.4375 73.0231 73.6021 72.6257 73.8951 72.3326C74.1882 72.0396 74.5856 71.875 75 71.875H79.6875C80.1019 71.875 80.4993 72.0396 80.7924 72.3326C81.0854 72.6257 81.25 73.0231 81.25 73.4375ZM81.25 81.25C81.25 81.6644 81.0854 82.0618 80.7924 82.3549C80.4993 82.6479 80.1019 82.8125 79.6875 82.8125H75C74.5856 82.8125 74.1882 82.6479 73.8951 82.3549C73.6021 82.0618 73.4375 81.6644 73.4375 81.25C73.4375 80.8356 73.6021 80.4382 73.8951 80.1451C74.1882 79.8521 74.5856 79.6875 75 79.6875H79.6875C80.1019 79.6875 80.4993 79.8521 80.7924 80.1451C81.0854 80.4382 81.25 80.8356 81.25 81.25ZM26.5625 65.625C26.5625 66.0394 26.3979 66.4368 26.1049 66.7299C25.8118 67.0229 25.4144 67.1875 25 67.1875H20.3125C19.8981 67.1875 19.5007 67.0229 19.2076 66.7299C18.9146 66.4368 18.75 66.0394 18.75 65.625C18.75 65.2106 18.9146 64.8132 19.2076 64.5201C19.5007 64.2271 19.8981 64.0625 20.3125 64.0625H25C25.4144 64.0625 25.8118 64.2271 26.1049 64.5201C26.3979 64.8132 26.5625 65.2106 26.5625 65.625ZM26.5625 73.4375C26.5625 73.8519 26.3979 74.2493 26.1049 74.5424C25.8118 74.8354 25.4144 75 25 75H20.3125C19.8981 75 19.5007 74.8354 19.2076 74.5424C18.9146 74.2493 18.75 73.8519 18.75 73.4375C18.75 73.0231 18.9146 72.6257 19.2076 72.3326C19.5007 72.0396 19.8981 71.875 20.3125 71.875H25C25.4144 71.875 25.8118 72.0396 26.1049 72.3326C26.3979 72.6257 26.5625 73.0231 26.5625 73.4375ZM26.5625 81.25C26.5625 81.6644 26.3979 82.0618 26.1049 82.3549C25.8118 82.6479 25.4144 82.8125 25 82.8125H20.3125C19.8981 82.8125 19.5007 82.6479 19.2076 82.3549C18.9146 82.0618 18.75 81.6644 18.75 81.25C18.75 80.8356 18.9146 80.4382 19.2076 80.1451C19.5007 79.8521 19.8981 79.6875 20.3125 79.6875H25C25.4144 79.6875 25.8118 79.8521 26.1049 80.1451C26.3979 80.4382 26.5625 80.8356 26.5625 81.25Z" fill="#23C3F2"/>
<path d="M90.625 56.2498V53.1248C90.625 52.296 90.2958 51.5012 89.7097 50.9151C89.1237 50.3291 88.3288 49.9998 87.5 49.9998H70.3125V46.8748C71.1413 46.8748 71.9362 46.5456 72.5222 45.9595C73.1083 45.3735 73.4375 44.5786 73.4375 43.7498V41.4842C73.4392 40.9587 73.3084 40.4412 73.0572 39.9797C72.8059 39.5181 72.4423 39.1274 72 38.8436C50.9375 25.3123 51.9531 25.9842 50.8438 25.2498C50.592 25.0883 50.2991 25.0024 50 25.0024C49.7009 25.0024 49.408 25.0883 49.1562 25.2498C48.0469 25.9842 50.3125 24.5155 28 38.8436C27.5577 39.1274 27.1941 39.5181 26.9428 39.9797C26.6916 40.4412 26.5607 40.9587 26.5625 41.4842V43.7498C26.5625 44.5786 26.8917 45.3735 27.4778 45.9595C28.0638 46.5456 28.8587 46.8748 29.6875 46.8748V51.5623H12.5C11.6712 51.5623 10.8763 51.8916 10.2903 52.4776C9.70424 53.0637 9.375 53.8585 9.375 54.6873V57.8123C9.375 58.6411 9.70424 59.436 10.2903 60.022C10.8763 60.6081 11.6712 60.9373 12.5 60.9373V87.4998H10.9375C10.5231 87.4998 10.1257 87.6645 9.83265 87.9575C9.53962 88.2505 9.375 88.6479 9.375 89.0623C9.375 89.4767 9.53962 89.8742 9.83265 90.1672C10.1257 90.4602 10.5231 90.6248 10.9375 90.6248H89.0625C89.4769 90.6248 89.8743 90.4602 90.1674 90.1672C90.4604 89.8742 90.625 89.4767 90.625 89.0623C90.625 88.6479 90.4604 88.2505 90.1674 87.9575C89.8743 87.6645 89.4769 87.4998 89.0625 87.4998H87.5V59.3748C88.3288 59.3748 89.1237 59.0456 89.7097 58.4595C90.2958 57.8735 90.625 57.0786 90.625 56.2498ZM87.5 53.1248V56.2498H70.3125V53.1248H87.5ZM29.6875 41.4842L50 28.4217L70.3125 41.4842V43.7498H29.6875V41.4842ZM12.5 54.6873H29.6875V57.8123H12.5V54.6873ZM15.625 60.9373H29.6875V87.4998H15.625V60.9373ZM32.8125 46.8748H67.1875V87.4998H60.9375V76.5623C60.9375 75.3191 60.4436 74.1269 59.5646 73.2478C58.6855 72.3687 57.4932 71.8748 56.25 71.8748H43.75C42.5068 71.8748 41.3145 72.3687 40.4354 73.2478C39.5564 74.1269 39.0625 75.3191 39.0625 76.5623V87.4998H32.8125V46.8748ZM42.1875 76.5623C42.1875 76.1479 42.3521 75.7505 42.6451 75.4575C42.9382 75.1645 43.3356 74.9998 43.75 74.9998H48.4375V87.4998H42.1875V76.5623ZM51.5625 87.4998V74.9998H56.25C56.6644 74.9998 57.0618 75.1645 57.3549 75.4575C57.6479 75.7505 57.8125 76.1479 57.8125 76.5623V87.4998H51.5625ZM84.375 87.4998H70.3125V59.3748H84.375V87.4998Z" fill="#0A3C72"/>
<defs>
<linearGradient id="paint0_linear_86_169" x1="44.5313" y1="89.0625" x2="44.5313" y2="23.4375" gradientUnits="userSpaceOnUse">
<stop stop-color="white" stop-opacity="0"/>
<stop offset="0.1" stop-color="#E2F7FD" stop-opacity="0.13"/>
<stop offset="0.35" stop-color="#9FE5F9" stop-opacity="0.44"/>
<stop offset="0.57" stop-color="#6AD6F6" stop-opacity="0.68"/>
<stop offset="0.76" stop-color="#43CCF4" stop-opacity="0.85"/>
<stop offset="0.91" stop-color="#2CC5F3" stop-opacity="0.96"/>
<stop offset="1" stop-color="#23C3F2"/>
</linearGradient>
</defs>
</svg>
