<svg width="60" height="60" viewBox="0 0 60 60" fill="none" xmlns="http://www.w3.org/2000/svg">
<path d="M55 0H5C2.23858 0 0 2.23858 0 5V55C0 57.7614 2.23858 60 5 60H55C57.7614 60 60 57.7614 60 55V5C60 2.23858 57.7614 0 55 0Z" fill="white"/>
<mask id="mask0_0_1" style="mask-type:luminance" maskUnits="userSpaceOnUse" x="9" y="8" width="43" height="43">
<path d="M51.6 8.40039H9.59998V50.4004H51.6V8.40039Z" fill="white"/>
</mask>
<g mask="url(#mask0_0_1)">
<path d="M31.0286 25.582V33.7148H42.5611C42.0547 36.3303 40.535 38.5449 38.2558 40.034L45.2103 45.3223C49.2623 41.6569 51.6 36.2732 51.6 29.8777C51.6 28.3886 51.4637 26.9567 51.2103 25.5823L31.0286 25.582Z" fill="#4285F4"/>
<path d="M19.0193 33.3975L17.4508 34.5741L11.8987 38.8123C15.4247 45.6659 22.6515 50.4005 31.0281 50.4005C36.8137 50.4005 41.6643 48.5296 45.2099 45.3224L38.2553 40.0341C36.3462 41.2941 33.9111 42.0578 31.0281 42.0578C25.4567 42.0578 20.723 38.3733 19.0281 33.4096L19.0193 33.3975Z" fill="#34A853"/>
<path d="M11.8987 19.9883C10.4377 22.8136 9.60016 26.0019 9.60016 29.4C9.60016 32.7982 10.4377 35.9864 11.8987 38.8118C11.8987 38.8307 19.0287 33.3899 19.0287 33.3899C18.6002 32.1299 18.3468 30.7936 18.3468 29.3998C18.3468 28.006 18.6002 26.6697 19.0287 25.4097L11.8987 19.9883Z" fill="#FBBC05"/>
<path d="M31.0286 16.7622C34.1845 16.7622 36.9896 17.8313 39.2299 19.8932L45.3662 13.8796C41.6454 10.4814 36.8144 8.40039 31.0286 8.40039C22.6519 8.40039 15.4247 13.1159 11.8987 19.9887L19.0286 25.4105C20.7233 20.4468 25.4571 16.7622 31.0286 16.7622Z" fill="#EA4335"/>
</g>
</svg>
