<svg xmlns:xlink="http://www.w3.org/1999/xlink" data-v-aca28b9c="" aria-hidden="true" focusable="false" data-prefix="far" data-icon="bars" role="img" xmlns="http://www.w3.org/2000/svg" viewBox="0 0 448 512" class="cursor__pointer student-mobile-side-menu-toggle__hamburger svg-inline--fa fa-bars fa-w-14" width="448"  height="512" ><path data-v-aca28b9c="" fill="#0E0E0E" d="M0 88C0 74.7 10.7 64 24 64H424c13.3 0 24 10.7 24 24s-10.7 24-24 24H24C10.7 112 0 101.3 0 88zM0 248c0-13.3 10.7-24 24-24H424c13.3 0 24 10.7 24 24s-10.7 24-24 24H24c-13.3 0-24-10.7-24-24zM448 408c0 13.3-10.7 24-24 24H24c-13.3 0-24-10.7-24-24s10.7-24 24-24H424c13.3 0 24 10.7 24 24z" class=""></path></svg>