<svg width="35" height="40" viewBox="0 0 35 40" fill="none" xmlns="http://www.w3.org/2000/svg">
<g clip-path="url(#clip0_1_15)">
<path d="M32.8702 12.2318C32.8702 12.2318 32.8702 12.2318 32.8311 12.2318C31.9852 12.8111 30.9754 13.1157 29.9438 13.1028H29.787C29.2005 13.1045 28.6246 12.9495 28.1213 12.6545C27.888 12.5232 27.6691 12.3687 27.468 12.1934C25.5166 10.5084 23.0004 9.58735 20.4001 9.60614C20.2695 9.60614 20.1388 9.60614 20.0082 9.60614C17.7574 9.70301 15.5949 10.4918 13.8269 11.8607C12.0589 13.2297 10.7751 15.1093 10.1575 17.2334C6.33243 18.6697 2.98041 21.1034 0.463563 24.2715C0.056495 22.4213 -0.0842275 20.5244 0.0454966 18.6359C0.652999 9.30515 9.28868 0.781297 18.7866 0.0576336C19.3288 -3.30881e-06 19.8645 -3.31025e-06 20.4001 -3.31025e-06C24.7567 -0.00385907 28.9996 1.36322 32.5044 3.90009L33.1577 4.374C33.7599 4.85528 34.2403 5.46681 34.561 6.16063C34.8818 6.85445 35.0342 7.61169 35.0064 8.37296C34.9785 9.13422 34.7712 9.87881 34.4005 10.5483C34.0299 11.2178 33.5061 11.7941 32.8702 12.2318Z" fill="#61ABE5"/>
<path d="M20.4003 36.2216V40C15.7459 40.0004 11.2311 38.4408 7.60492 35.58C3.97874 32.7192 1.45905 28.7291 0.463791 24.2715C2.54106 19.6862 5.20623 18.066 10.1512 17.227C9.9457 17.9714 9.82735 18.7363 9.79843 19.5069C9.69439 21.567 10.2145 23.6113 11.2932 25.3822C12.3719 27.1532 13.961 28.5716 15.8604 29.4589C17.193 30.0485 18.3273 30.9972 19.1311 32.1945C19.9348 33.3919 20.375 34.7884 20.4003 36.2216Z" fill="#6170E5"/>
<path d="M34.2096 29.5997C31.3972 29.5997 28.6999 30.6946 26.7106 32.6436C24.7213 34.5927 23.6029 37.2364 23.6012 39.9936C26.4136 39.9936 29.1109 38.8987 31.1001 36.9497C33.0894 35.0007 34.2079 32.357 34.2096 29.5997Z" fill="#6170E5"/>
<path d="M20.9621 16.7339C20.1747 16.7326 19.4047 16.9605 18.7495 17.3885C18.0943 17.8166 17.5834 18.4256 17.2815 19.1385C16.9796 19.8515 16.9003 20.6362 17.0535 21.3933C17.2068 22.1504 17.5858 22.846 18.1426 23.3918C18.6993 23.9376 19.4088 24.3092 20.1811 24.4595C20.9534 24.6098 21.7538 24.532 22.481 24.236C23.2082 23.94 23.8294 23.4391 24.266 22.7968C24.7027 22.1544 24.935 21.3995 24.9337 20.6276C24.932 19.5955 24.513 18.6061 23.7686 17.8762C23.0241 17.1464 22.0149 16.7356 20.9621 16.7339Z" fill="#4651A8"/>
</g>
<defs>
<clipPath id="clip0_1_15">
<rect width="35" height="40" fill="white"/>
</clipPath>
</defs>
</svg>
