<svg width="323" height="250" viewBox="0 0 333 250" fill="none" xmlns="http://www.w3.org/2000/svg">
<path d="M335.363 1L1 186.875V249L335.363 66.6323V1Z" fill="#FFF0FA" stroke="#D7D7D7"/>
<path d="M27.4714 212.919L24.827 214.418L21.4773 200.987L24.6785 199.172L36.7618 207.651L34.0304 209.2L31.3922 207.286L26.6949 209.95L27.4714 212.919ZM25.2956 204.68L26.0494 207.547L29.2331 205.742L26.6874 203.891L24.356 201.963L25.2956 204.68ZM39.8055 205.925L37.3176 207.336L29.601 196.381L32.8892 194.516L37.6533 197.512L41.0413 200.145L39.8455 196.269L38.874 191.123L42.1622 189.258L49.8787 200.213L47.3908 201.624L44.5 197.52L41.7383 192.908L42.9149 197.343L43.567 201.138L40.9573 202.618L37.4172 200.461L33.4396 197.613L36.9146 201.821L39.8055 205.925ZM53.0753 198.401L50.4308 199.9L47.0811 186.469L50.2823 184.654L62.3656 193.133L59.6342 194.682L56.9961 192.768L52.2987 195.432L53.0753 198.401ZM50.8994 190.162L51.6532 193.029L54.837 191.224L52.2912 189.372L49.9599 187.445L50.8994 190.162ZM72.3238 187.486L62.6681 192.961L61.3781 191.13L62.1878 183.12L62.6546 180.43L61.0594 181.449L56.7622 183.885L55.2995 181.809L64.2593 176.728L65.5492 178.56L64.6807 186.832L64.2206 189.289L65.7114 188.33L70.8611 185.41L72.3238 187.486ZM78.5136 184.182C75.0341 186.155 70.9115 185.038 68.6772 181.866C66.4543 178.71 67.0987 174.889 70.5783 172.916C74.0578 170.943 78.1804 172.061 80.4032 175.217C82.6376 178.389 81.9932 182.209 78.5136 184.182ZM76.9127 181.909C79.0701 180.686 79.1582 178.668 77.7762 176.706C76.4056 174.76 74.325 173.95 72.1676 175.173C70.0277 176.386 69.9337 178.43 71.3042 180.376C72.6863 182.338 74.7728 183.123 76.9127 181.909ZM88.2607 178.449L85.7729 179.86L78.0563 168.905L80.4746 167.534L88.6463 170.909L90.9169 172.024L88.9406 169.529L85.5199 164.673L88.0078 163.262L95.7244 174.217L93.3583 175.559L85.0477 172.194L82.8636 171.167L84.9668 173.773L88.2607 178.449ZM115.499 163.187C112.698 164.776 109.332 164.007 106.718 160.295C104.426 157.042 104.861 153.477 108.619 151.346C111.089 149.945 113.711 149.969 115.807 151.32L114.761 154.018C113.585 152.969 111.884 152.629 110.197 153.586C108.039 154.809 107.98 156.765 109.397 158.776C110.883 160.885 112.935 161.552 114.918 160.428C116.536 159.51 116.841 158.285 116.493 156.857L113.292 158.672L111.968 156.792L117.552 153.625L121.687 159.495L120.034 160.433L116.633 156.778C118.331 159.431 117.987 161.777 115.499 163.187ZM128.906 155.608C125.426 157.581 121.304 156.464 119.069 153.292C116.846 150.136 117.491 146.315 120.97 144.342C124.45 142.369 128.573 143.487 130.795 146.642C133.03 149.815 132.385 153.635 128.906 155.608ZM127.305 153.335C129.462 152.112 129.55 150.094 128.168 148.132C126.798 146.186 124.717 145.375 122.56 146.599C120.42 147.812 120.326 149.856 121.696 151.802C123.078 153.764 125.165 154.549 127.305 153.335ZM141.818 148.286C138.339 150.259 134.216 149.142 131.982 145.97C129.759 142.814 130.403 138.994 133.883 137.02C137.362 135.047 141.485 136.165 143.708 139.321C145.942 142.493 145.298 146.313 141.818 148.286ZM140.217 146.014C142.375 144.79 142.463 142.772 141.081 140.81C139.71 138.865 137.629 138.054 135.472 139.277C133.332 140.49 133.238 142.534 134.609 144.48C135.991 146.442 138.077 147.227 140.217 146.014ZM153.675 141.54C150.874 143.128 147.508 142.36 144.894 138.648C142.602 135.394 143.037 131.83 146.795 129.699C149.266 128.298 151.887 128.321 153.983 129.673L152.938 132.371C151.761 131.322 150.061 130.982 148.373 131.939C146.216 133.162 146.157 135.118 147.573 137.129C149.059 139.238 151.111 139.905 153.095 138.78C154.713 137.863 155.018 136.637 154.67 135.21L151.469 137.025L150.144 135.145L155.729 131.978L159.864 137.848L158.211 138.785L154.809 135.131C156.507 137.783 156.163 140.129 153.675 141.54ZM170.051 132.071L161.735 136.787L154.018 125.832L156.506 124.421L162.76 133.3L168.588 129.995L170.051 132.071ZM179.452 126.741L170.892 131.594L163.176 120.639L171.736 115.785L173.198 117.862L167.126 121.305L168.75 123.61L173.831 120.73L175.293 122.806L170.213 125.687L171.918 128.107L177.989 124.664L179.452 126.741ZM196.792 116.908L194.305 118.319L186.588 107.364L189.876 105.499L194.64 108.495L198.028 111.127L196.832 107.252L195.861 102.105L199.149 100.241L206.866 111.196L204.378 112.607L201.487 108.503L198.725 103.891L199.902 108.326L200.554 112.121L197.944 113.601L194.404 111.443L190.427 108.596L193.902 112.804L196.792 116.908ZM217.628 105.093L209.069 109.947L201.352 98.9917L209.912 94.1381L211.375 96.2146L205.303 99.6576L206.927 101.963L212.007 99.0824L213.47 101.159L208.389 104.04L210.094 106.46L216.166 103.017L217.628 105.093ZM223.991 101.486L221.503 102.896L215.249 94.0178L211.769 95.9908L210.307 93.9143L219.754 88.5575L221.216 90.6341L217.737 92.6071L223.991 101.486ZM228.768 98.7766L226.124 100.276L222.774 86.8448L225.975 85.0296L238.059 93.5086L235.327 95.0575L232.689 93.144L227.992 95.8076L228.768 98.7766ZM226.592 90.5374L227.346 93.4049L230.53 91.5996L227.984 89.7482L225.653 87.821L226.592 90.5374ZM251.568 85.8483L249.08 87.259L241.364 76.3039L243.782 74.9326L251.954 78.3076L254.224 79.4226L252.248 76.928L248.827 72.0717L251.315 70.661L259.032 81.6162L256.665 82.9578L248.355 79.593L246.171 78.5662L248.274 81.1719L251.568 85.8483ZM269.788 75.5171L261.228 80.3708L253.511 69.4156L262.071 64.562L263.534 66.6386L257.462 70.0815L259.086 72.387L264.166 69.5064L265.629 71.5829L260.549 74.4636L262.253 76.8835L268.325 73.4406L269.788 75.5171ZM276.15 71.9096L273.662 73.3203L267.408 64.4417L263.928 66.4148L262.466 64.3382L271.913 58.9814L273.375 61.058L269.896 63.031L276.15 71.9096ZM282.812 68.1316L280.325 69.5423L272.608 58.5871L281.046 53.8026L282.509 55.8791L276.559 59.253L278.47 61.9673L283.429 59.1557L284.891 61.2323L279.933 64.0438L282.812 68.1316ZM298.121 59.4511L289.805 64.1666L282.088 53.2114L284.576 51.8007L290.83 60.6793L296.658 57.3745L298.121 59.4511ZM301.45 57.5632L298.963 58.9739L291.246 48.0188L293.734 46.6081L301.45 57.5632ZM305.234 55.4178L302.12 57.1837L302.09 49.2607L294.542 46.1496L297.709 44.3542L303.019 46.8807L302.684 41.5328L305.729 39.8064L305.818 47.4672L313.602 50.6727L310.453 52.4583L304.895 49.8898L305.234 55.4178Z" fill="#9260FF"/>
</svg>
