<svg width="316" height="180" viewBox="0 0 316 180" fill="none" xmlns="http://www.w3.org/2000/svg">
<path d="M0 53.7931L316 180V126.207L0 0V53.7931Z" fill="#9260FF"/>
<path d="M42.1188 48.7725C39.1469 47.5332 38.0184 44.5307 39.9835 40.438C41.7062 36.8502 45.195 35.1674 49.1822 36.8301C51.8034 37.9233 53.2071 39.9369 53.1138 42.3L50.0839 43.0272C50.4008 41.5364 49.7867 40.0469 47.9962 39.3002C45.7073 38.3456 43.891 39.4059 42.8262 41.6235C41.7095 43.9493 42.2168 45.8921 44.3212 46.7696C46.0379 47.4856 47.3221 47.0257 48.4351 45.9535L45.0387 44.537L46.0342 42.4636L51.9596 44.9347L48.8518 51.4073L47.0982 50.676L48.5828 46.015C47.0858 48.8098 44.7585 49.8733 42.1188 48.7725ZM56.323 54.7177C52.6311 53.1781 51.4094 49.401 53.0888 45.9033C54.7595 42.4236 58.5956 40.7558 62.2874 42.2954C65.9793 43.835 67.201 47.6121 65.5303 51.0918C63.8509 54.5895 60.0148 56.2573 56.323 54.7177ZM57.5263 52.2116C59.8152 53.1662 61.7041 52.0929 62.7429 49.9294C63.7731 47.7839 63.3818 45.738 61.0928 44.7835C58.8223 43.8366 56.9063 44.9202 55.8761 47.0657C54.8373 49.2293 55.2558 51.2648 57.5263 52.2116ZM70.0231 60.4311C66.3313 58.8915 65.1096 55.1144 66.789 51.6167C68.4597 48.137 72.2958 46.4692 75.9876 48.0088C79.6794 49.5484 80.9012 53.3255 79.2304 56.8051C77.551 60.3029 73.715 61.9707 70.0231 60.4311ZM71.2264 57.925C73.5154 58.8795 75.4043 57.8063 76.4431 55.6427C77.4733 53.4972 77.0819 51.4514 74.793 50.4968C72.5225 49.55 70.6064 50.6336 69.5763 52.7791C68.5375 54.9426 68.9559 56.9781 71.2264 57.925ZM82.6244 65.6645C79.6525 64.4251 78.5241 61.4227 80.4891 57.33C82.2118 53.7422 85.7006 52.0594 89.6878 53.7221C92.309 54.8153 93.7128 56.8289 93.6194 59.192L90.5895 59.9192C90.9065 58.4284 90.2923 56.9389 88.5018 56.1922C86.2129 55.2376 84.3966 56.2979 83.3318 58.5155C82.2151 60.8413 82.7224 62.7841 84.8268 63.6616C86.5435 64.3776 87.8277 63.9177 88.9408 62.8455L85.5443 61.429L86.5398 59.3556L92.4652 61.8267L89.3574 68.2993L87.6038 67.568L89.0884 62.907C87.5915 65.7018 85.2641 66.7653 82.6244 65.6645ZM100.166 72.8069L91.3429 69.1273L97.1429 57.0475L99.7826 58.1484L95.082 67.9384L101.266 70.5172L100.166 72.8069ZM110.141 76.9667L101.059 73.1793L106.859 61.0995L115.941 64.8869L114.842 67.1767L108.399 64.4901L107.179 67.0322L112.569 69.28L111.47 71.5698L106.079 69.322L104.798 71.9903L111.241 74.6769L110.141 76.9667ZM124.268 82.8579L121.462 81.6878L131.895 71.5403L135.292 72.9567L134.125 86.9687L131.227 85.7601L131.539 82.6657L126.555 80.5872L124.268 82.8579ZM130.602 76.5407L128.396 78.7367L131.774 80.1454L132.079 77.1566L132.57 74.2885L130.602 76.5407ZM137.354 88.3154L134.715 87.2146L140.515 75.1348L145.646 77.2749C148.489 78.4604 150.053 80.6488 148.59 83.6958C147.161 86.6707 144.405 87.0578 141.526 85.8569L139.034 84.8177L137.354 88.3154ZM144.455 79.5261L142.055 78.5254L140.133 82.5279L142.533 83.5287C143.899 84.0983 145.137 83.9654 145.821 82.5411C146.548 81.0266 145.821 80.0958 144.455 79.5261ZM148.837 93.1041L146.198 92.0033L151.998 79.9235L157.129 82.0636C159.972 83.2491 161.536 85.4375 160.073 88.4845C158.644 91.4594 155.888 91.8465 153.009 90.6456L150.517 89.6064L148.837 93.1041ZM155.938 84.3148L153.538 83.3141L151.616 87.3166L154.016 88.3174C155.382 88.887 156.62 88.7541 157.304 87.3298C158.031 85.8153 157.304 84.8845 155.938 84.3148ZM166.504 100.472L157.681 96.792L163.481 84.7122L166.12 85.813L161.42 95.603L167.603 98.1819L166.504 100.472ZM176.479 104.631L167.397 100.844L173.197 88.7642L182.279 92.5516L181.179 94.8414L174.737 92.1548L173.517 94.6969L178.907 96.9447L177.807 99.2345L172.417 96.9867L171.136 99.655L177.578 102.342L176.479 104.631ZM194.297 112.062L191.658 110.961L196.358 101.171L192.666 99.6318L193.766 97.3421L203.789 101.522L202.69 103.812L198.998 102.272L194.297 112.062ZM207.809 117.697L198.727 113.909L204.527 101.83L213.609 105.617L212.509 107.907L206.067 105.22L204.847 107.762L210.237 110.01L209.137 112.3L203.747 110.052L202.466 112.721L208.908 115.407L207.809 117.697ZM214.233 120.592C211.851 119.599 210.018 117.926 209.722 115.682L212.41 114.422C212.513 116.283 213.983 117.697 215.46 118.313C216.531 118.759 217.462 118.758 217.86 117.928C218.31 116.991 217.645 116.346 216.158 115.336L215.079 114.583C213.341 113.404 211.931 111.82 213.03 109.531C214.164 107.169 216.847 106.795 219.358 107.842C221.684 108.811 223.132 110.454 223.474 112.328L220.74 113.546C220.533 111.946 219.422 110.66 218.001 110.067C217.06 109.675 216.186 109.786 215.849 110.49C215.424 111.373 216.062 112.029 217.216 112.856L218.463 113.766C220.519 115.251 221.647 116.824 220.608 118.988C219.5 121.296 216.909 121.708 214.233 120.592ZM229.308 126.663L220.485 122.983L226.285 110.903L228.925 112.004L224.224 121.794L230.408 124.373L229.308 126.663ZM232.229 127.881L229.423 126.711L239.856 116.563L243.253 117.979L242.086 131.991L239.188 130.783L239.499 127.688L234.515 125.61L232.229 127.881ZM238.563 121.564L236.357 123.759L239.735 125.168L240.04 122.179L240.531 119.311L238.563 121.564Z" fill="#E7DBFF"/>
</svg>
