<svg width="100" height="100" viewBox="0 0 100 100" fill="none" xmlns="http://www.w3.org/2000/svg">
<g clip-path="url(#clip0_89_184)">
<path d="M81.25 100H18.75C13.7772 100 9.00805 98.0246 5.49175 94.5083C1.97544 90.992 0 86.2228 0 81.25L0 18.75C0 13.7772 1.97544 9.00805 5.49175 5.49175C9.00805 1.97544 13.7772 0 18.75 0L81.25 0C86.2228 0 90.992 1.97544 94.5083 5.49175C98.0246 9.00805 100 13.7772 100 18.75V81.25C100 86.2228 98.0246 90.992 94.5083 94.5083C90.992 98.0246 86.2228 100 81.25 100Z" fill="#FFF9DD"/>
<path d="M68.9375 43.7501H63.75C63.4415 43.7475 63.1366 43.8157 62.8587 43.9496C62.5807 44.0834 62.3372 44.2792 62.1469 44.522L62.9594 47.7501C63.2097 47.8561 63.4782 47.9123 63.75 47.9157H68.9375C69.1439 47.9249 69.3475 47.9671 69.5406 48.0407L63.0625 51.7501C62.6954 53.0508 61.9119 54.1952 60.8322 55.008C59.7524 55.8208 58.4359 56.2571 57.0844 56.2501C55.8125 56.2501 54.6062 55.8751 53.5625 55.1657L50.25 52.9157C50.1469 52.9563 50.0625 53.0001 50.0406 53.0001C49.9781 53.0001 49.8937 52.9595 49.7687 52.9157L46.4344 55.1657C45.5879 55.7479 44.6105 56.1115 43.5893 56.2242C42.5681 56.3368 41.535 56.195 40.5819 55.8113C39.6289 55.4276 38.7857 54.814 38.1274 54.0252C37.4691 53.2365 37.0163 52.297 36.8094 51.2907L30.5594 48.0188C30.725 47.9782 30.8938 47.9157 31.0594 47.9157H36.2469C36.5188 47.9157 36.7875 47.8532 37.0375 47.7501L37.85 44.522C37.6605 44.2791 37.4176 44.0831 37.1401 43.9493C36.8626 43.8154 36.5581 43.7473 36.25 43.7501H31.0625C27.7281 43.7501 25 46.4157 25 49.7095V69.0438C25 72.3345 27.7281 75.0001 31.0625 75.0001H68.9375C72.2719 75.0001 75 72.3345 75 69.0407V49.7063C75 46.4157 72.2719 43.7501 68.9375 43.7501ZM70.8344 69.0407C70.8344 70.0188 69.9594 70.8313 68.9375 70.8313H31.0625C30.0406 70.8313 29.1656 70.0188 29.1656 69.0407V52.0001L41.3938 58.3751C40.907 58.9446 40.635 59.6666 40.625 60.4157C40.625 62.1657 42.0406 63.1657 42.8969 63.7688C43.0844 63.8938 43.3563 64.0813 43.4188 64.0813C43.4594 64.2063 43.5031 64.5813 43.5219 64.8532C43.6469 65.8532 43.8344 67.5188 45.3344 68.3532C45.7952 68.6208 46.3202 68.758 46.8531 68.7501C47.75 68.7501 48.5813 68.397 49.2063 68.147C49.4781 68.022 49.8938 67.8563 49.9562 67.8345C50.1031 67.8563 50.5188 68.022 50.7906 68.147C51.7688 68.5438 53.2281 69.1688 54.6656 68.3563C56.1656 67.522 56.3531 65.8563 56.4781 64.8563C56.5 64.5845 56.5406 64.2095 56.5 64.2313C56.5844 64.1282 56.8969 63.9188 57.1031 63.772C57.9594 63.1657 59.375 62.1657 59.375 60.4157C59.3767 59.8802 59.2331 59.3542 58.9594 58.8938L70.8344 52.1032V69.0407Z" fill="#FFD200"/>
<path d="M57.0813 52.0843C56.6629 52.0855 56.2541 51.9591 55.9094 51.7218L50 47.6999L44.0907 51.7218C43.7411 51.9588 43.3277 52.0839 42.9054 52.0806C42.483 52.0774 42.0717 51.9459 41.7257 51.7037C41.3798 51.4614 41.1156 51.1198 40.9681 50.724C40.8207 50.3282 40.7969 49.897 40.9001 49.4874L42.7532 42.1718L37.1907 37.4187C36.8744 37.1485 36.6463 36.7898 36.5355 36.3889C36.4248 35.9879 36.4366 35.563 36.5693 35.1688C36.7021 34.7746 36.9497 34.4291 37.2804 34.1768C37.6111 33.9245 38.0098 33.7769 38.425 33.7531L45.4813 33.3531L48.0438 26.3624C48.19 25.9609 48.4563 25.614 48.8065 25.369C49.1567 25.1241 49.5738 24.9928 50.0011 24.9932C50.4285 24.9935 50.8454 25.1254 51.1952 25.3709C51.545 25.6165 51.8107 25.9637 51.9563 26.3656L54.5188 33.3562L61.5751 33.7562C61.9895 33.7816 62.387 33.93 62.7167 34.1825C63.0464 34.435 63.2933 34.78 63.4258 35.1736C63.5584 35.5671 63.5705 35.9913 63.4607 36.3918C63.3509 36.7923 63.1241 37.1509 62.8094 37.4218L57.2469 42.1749L59.1001 49.4906C59.1775 49.7978 59.1838 50.1187 59.1186 50.4288C59.0534 50.739 58.9184 51.0301 58.7237 51.2802C58.5291 51.5302 58.28 51.7326 57.9954 51.872C57.7108 52.0113 57.3982 52.0839 57.0813 52.0843Z" fill="#FFE777"/>
</g>
<defs>
<clipPath id="clip0_89_184">
<rect width="100" height="100" fill="white"/>
</clipPath>
</defs>
</svg>
