<svg width="150" height="150" viewBox="0 0 150 150" fill="none" xmlns="http://www.w3.org/2000/svg">
<g clip-path="url(#clip0_34_82)">
<path d="M124.145 92.1635H124.627L100 72.2247L84.4373 59.6247C79.0343 55.2501 71.7134 55.2501 66.309 59.6247L50.7463 72.2247L26.1194 92.1635H26.6015C26.4736 92.1635 26.351 92.2143 26.2606 92.3047C26.1702 92.3951 26.1194 92.5178 26.1194 92.6456V128.343C26.1194 131.811 27.4971 135.137 29.9493 137.589C32.4016 140.041 35.7275 141.419 39.1955 141.419H111.552C115.02 141.419 118.346 140.041 120.798 137.589C123.251 135.137 124.628 131.811 124.628 128.343V92.6456C124.628 92.5177 124.576 92.3953 124.486 92.3051C124.395 92.2148 124.273 92.1639 124.145 92.1635Z" fill="#D68630"/>
<path opacity="0.6" d="M124.627 92.6415V128.343C124.627 134.671 120.134 139.94 114.179 141.149V83.7012L124.627 92.1639H124.149C124.418 92.1639 124.627 92.3728 124.627 92.6415Z" fill="#BC6124"/>
<path d="M105.224 65.2232V132.969C105.224 133.522 104.791 133.955 104.239 133.955H46.5075C45.9552 133.955 45.5224 133.522 45.5224 132.969V65.2232C45.5224 57.7157 50.5672 51.4023 57.4627 49.4769C58.8657 49.0888 60.3433 48.8799 61.8657 48.8799H88.8806C97.9105 48.8799 105.224 56.1933 105.224 65.2232Z" fill="#FFF5D3"/>
<path opacity="0.6" d="M105.224 65.2235V132.97C105.224 133.522 104.791 133.955 104.239 133.955H46.5075C45.9552 133.955 45.5224 133.522 45.5224 132.97V111.567H86.403C89.0195 111.567 91.5289 110.527 93.3791 108.677C95.2292 106.827 96.2687 104.318 96.2687 101.701V51.2832C96.2687 51.0593 96.2687 50.8503 96.2388 50.6265C101.567 53.313 105.224 58.8354 105.224 65.2235Z" fill="#E5C3A1"/>
<path d="M87.4104 82.492L86.0149 83.3129L86.0015 83.3263L81.8687 86.0517L76.6537 89.4935L58.4 101.528C56.0134 103.105 53.106 100.446 54.4627 97.9293L71.1522 67.0144L71.1657 67.0009V66.9875L71.8313 65.5278L71.8448 65.5024L71.8358 65.5069V65.5218C71.5373 65.9547 71.3134 66.4621 71.1642 66.9845V66.9995L71.1493 67.0144C70.3433 69.9547 71.597 74.2383 74.6119 77.9547C75.2388 78.7457 75.9403 79.4621 76.6567 80.1039C78.3433 81.6263 80.1493 82.7009 81.8657 83.2383C83.3881 83.686 84.8209 83.7457 86 83.3278L86.0149 83.3129C86.4925 83.1636 86.9104 82.9248 87.2985 82.6114C87.3284 82.5815 87.3731 82.5517 87.4179 82.492H87.4104Z" fill="#FF7296"/>
<path d="M69.403 70.2534V94.2683L63.6119 98.0892V80.9698L69.403 70.2534Z" fill="#FFCC54"/>
<path d="M87.4179 82.492C87.3731 82.5517 87.3284 82.5816 87.2985 82.6114C86.9104 82.9249 86.4925 83.1637 86.0149 83.3129L86 83.3279C85.8358 83.3876 85.6567 83.4473 85.4627 83.4771C84.403 83.7159 83.1642 83.6264 81.8657 83.2383C80.1493 82.701 78.3433 81.6264 76.6567 80.104C75.9403 79.4622 75.2388 78.7458 74.6119 77.9547C71.597 74.2383 70.3433 69.9547 71.1492 67.0144L71.1642 66.9995V66.9846C71.194 66.8801 71.2239 66.7756 71.2687 66.6861C71.403 66.2682 71.597 65.8652 71.8358 65.5219V65.507C72.0597 65.1488 72.3582 64.8353 72.6716 64.5816C73.7313 63.7308 75.1194 63.4323 76.6567 63.6413C78.3134 63.8502 80.1194 64.6264 81.8657 65.895C83.0895 66.7756 84.2985 67.895 85.3582 69.2383C89.3582 74.1488 90.2388 80.0443 87.4179 82.492Z" fill="#FF7296"/>
<path opacity="0.6" d="M87.4179 82.492C87.3731 82.5517 87.3284 82.5816 87.2985 82.6114C86.9104 82.9249 86.4925 83.1637 86.0149 83.3129L86 83.3279C85.8358 83.3876 85.6567 83.4473 85.4627 83.4771C84.403 83.7159 83.1642 83.6264 81.8657 83.2383C80.1493 82.701 78.3433 81.6264 76.6567 80.104C75.9403 79.4622 75.2388 78.7458 74.6119 77.9547C71.597 74.2383 70.3433 69.9547 71.1492 67.0144L71.1642 66.9995V66.9846C71.194 66.8801 71.2239 66.7756 71.2687 66.6861C71.403 66.2682 71.597 65.8652 71.8358 65.5219V65.507C72.0597 65.1488 72.3582 64.8353 72.6716 64.5816C73.7313 63.7308 75.1194 63.4323 76.6567 63.6413C78.3134 63.8502 80.1194 64.6264 81.8657 65.895C83.0895 66.7756 84.2985 67.895 85.3582 69.2383C89.3582 74.1488 90.2388 80.0443 87.4179 82.492Z" fill="#D8445D"/>
<path d="M84.2403 85.1008C83.3597 85.1008 82.4194 84.9575 81.4448 84.6709C79.4776 84.0545 77.4851 82.862 75.6567 81.2127C74.8541 80.5003 74.1136 79.7209 73.4433 78.8829C70.2269 74.9187 68.7567 70.0993 69.7105 66.6217C69.7247 66.5689 69.7422 66.5171 69.7627 66.4665C69.9463 65.859 70.1985 65.3038 70.5164 64.8127C70.5332 64.7808 70.5511 64.7494 70.5702 64.7187C70.8657 64.2441 71.2567 63.8083 71.7328 63.4232C72.706 62.6486 73.8552 62.2098 75.1552 62.1098C75.5465 62.0857 75.9316 62.2166 76.2272 62.4741C76.5228 62.7316 76.7053 63.0951 76.7351 63.486C76.7649 63.877 76.6396 64.2639 76.3865 64.5633C76.1333 64.8626 75.7725 65.0503 75.3821 65.0859C74.7346 65.1222 74.1133 65.3538 73.6 65.7501C73.4316 65.8847 73.282 66.0413 73.1552 66.2157C73.1278 66.2681 73.0974 66.319 73.0642 66.368C72.8637 66.6708 72.7107 67.0025 72.6104 67.3515C72.5964 67.4099 72.5784 67.4672 72.5567 67.5232C71.9284 70.065 73.209 73.8575 75.7687 77.0142C76.3045 77.6903 76.9343 78.3515 77.6493 78.9918C79.1642 80.359 80.7746 81.3336 82.309 81.8142C83.497 82.1635 84.5657 82.2142 85.3896 81.959C85.4473 81.9309 85.5072 81.9074 85.5687 81.8889C85.8382 81.8025 86.0896 81.6674 86.3104 81.4903C86.3506 81.446 86.3935 81.4041 86.4388 81.365C86.5791 81.2441 86.697 81.1157 86.7836 80.9918C86.8948 80.8304 87.0367 80.6925 87.2013 80.586C87.3658 80.4794 87.5497 80.4063 87.7425 80.3708C87.9353 80.3353 88.1332 80.3382 88.3249 80.3792C88.5166 80.4202 88.6983 80.4985 88.8597 80.6098C89.0211 80.721 89.159 80.8629 89.2656 81.0274C89.3721 81.192 89.4452 81.3759 89.4807 81.5687C89.5162 81.7615 89.5134 81.9593 89.4724 82.151C89.4314 82.3427 89.353 82.5245 89.2418 82.6859C89.0137 83.0141 88.7466 83.3133 88.4463 83.5769C88.4026 83.6228 88.3573 83.6671 88.3104 83.7097C87.8104 84.1343 87.2382 84.4655 86.6209 84.6874C86.5806 84.7068 86.5373 84.7232 86.497 84.7396C85.8104 84.9784 85.0507 85.1008 84.2403 85.1008Z" fill="#B51034"/>
<path d="M79.2627 76.4486C78.9493 76.4489 78.6438 76.3506 78.3894 76.1675C78.135 75.9845 77.9447 75.726 77.8455 75.4287C77.7462 75.1315 77.7431 74.8105 77.8364 74.5114C77.9298 74.2122 78.115 73.9501 78.3657 73.762L94.0119 62.0277C94.3286 61.7902 94.7267 61.6882 95.1185 61.7442C95.5104 61.8002 95.864 62.0095 96.1015 62.3262C96.339 62.6429 96.441 63.0409 96.385 63.4328C96.329 63.8247 96.1197 64.1782 95.803 64.4158L80.1567 76.1501C79.8881 76.3516 79.5746 76.4486 79.2627 76.4486ZM75.803 72.8949C75.5087 72.8944 75.2212 72.807 74.9764 72.6438C74.7316 72.4805 74.5404 72.2486 74.4269 71.9771C74.3134 71.7056 74.2826 71.4067 74.3384 71.1178C74.3941 70.8289 74.5339 70.5628 74.7403 70.3531L82.3701 62.6113C82.8358 62.1411 83.0403 61.4949 82.9358 60.8411C82.8313 60.1874 82.4343 59.6396 81.8463 59.3381C81.4381 59.128 80.9714 59.0606 80.5204 59.1466C80.0695 59.2326 79.6603 59.4671 79.3582 59.8128C79.0955 60.1038 78.7289 60.2798 78.3375 60.3027C77.9461 60.3256 77.5614 60.1936 77.2666 59.9352C76.9717 59.6768 76.7903 59.3128 76.7617 58.9218C76.733 58.5308 76.8594 58.1442 77.1134 57.8456C77.8539 56.9992 78.8563 56.4249 79.9609 56.2142C81.0656 56.0035 82.2089 56.1685 83.209 56.6829C84.6507 57.4232 85.6269 58.7665 85.8836 60.368C86.1403 61.9695 85.6343 63.5501 84.497 64.7068L76.8657 72.4501C76.7269 72.5911 76.5615 72.703 76.3791 72.7794C76.1966 72.8557 76.0008 72.895 75.803 72.8949ZM94.2985 80.9337C93.9625 80.9326 93.6366 80.8182 93.3736 80.609C93.1105 80.3999 92.9257 80.1082 92.8489 79.781C92.7721 79.4539 92.8079 79.1104 92.9504 78.806C93.0929 78.5017 93.3339 78.2543 93.6343 78.1038C94.4806 77.6844 94.9313 76.7456 94.7284 75.8217C94.6609 75.5056 94.5192 75.2102 94.315 74.9597C94.1107 74.7093 93.8498 74.511 93.5537 74.3814C93.2591 74.2493 92.9373 74.1889 92.6148 74.2052C92.2923 74.2216 91.9783 74.3142 91.6985 74.4755L82.2627 79.8695C81.9198 80.0548 81.5181 80.0986 81.1433 79.9916C80.7686 79.8846 80.4505 79.6353 80.2572 79.2969C80.0638 78.9586 80.0105 78.558 80.1086 78.1808C80.2066 77.8036 80.4484 77.4798 80.7821 77.2784L90.2179 71.8844C90.9037 71.489 91.6735 71.2621 92.4641 71.2221C93.2547 71.1821 94.0435 71.3304 94.7657 71.6546C95.491 71.9726 96.1304 72.4585 96.631 73.0722C97.1316 73.686 97.479 74.4099 97.6448 75.1844C97.8864 76.283 97.7533 77.4308 97.2667 78.445C96.7801 79.4591 95.9679 80.2811 94.9597 80.7799C94.7537 80.8804 94.5277 80.9329 94.2985 80.9337Z" fill="#B51034"/>
<path d="M75.3731 42.9099C74.9773 42.9099 74.5977 42.7527 74.3178 42.4727C74.0378 42.1928 73.8806 41.8132 73.8806 41.4174V31.4024C73.8806 31.0066 74.0378 30.627 74.3178 30.3471C74.5977 30.0672 74.9773 29.9099 75.3731 29.9099C75.769 29.9099 76.1486 30.0672 76.4285 30.3471C76.7084 30.627 76.8657 31.0066 76.8657 31.4024V41.4174C76.8657 41.8132 76.7084 42.1928 76.4285 42.4727C76.1486 42.7527 75.769 42.9099 75.3731 42.9099ZM75.3731 27.9845C74.9773 27.9845 74.5977 27.8273 74.3178 27.5474C74.0378 27.2675 73.8806 26.8878 73.8806 26.492V10.0741C73.8806 9.67823 74.0378 9.2986 74.3178 9.0187C74.5977 8.73879 74.9773 8.58154 75.3731 8.58154C75.769 8.58154 76.1486 8.73879 76.4285 9.0187C76.7084 9.2986 76.8657 9.67823 76.8657 10.0741V26.492C76.8657 26.8878 76.7084 27.2675 76.4285 27.5474C76.1486 27.8273 75.769 27.9845 75.3731 27.9845ZM84.3284 42.9099C84.0844 42.9098 83.8442 42.85 83.6287 42.7356C83.4132 42.6211 83.2291 42.4557 83.0924 42.2536C82.9557 42.0515 82.8707 41.819 82.8447 41.5764C82.8187 41.3338 82.8525 41.0886 82.9433 40.8621L91.8985 18.4741C92.0456 18.1065 92.3326 17.8125 92.6965 17.6566C93.0604 17.5007 93.4713 17.4957 93.8388 17.6427C94.2064 17.7898 94.5004 18.0768 94.6563 18.4407C94.8122 18.8046 94.8172 19.2155 94.6702 19.583L85.7149 41.9711C85.6038 42.2481 85.4125 42.4854 85.1654 42.6527C84.9183 42.82 84.6268 42.9096 84.3284 42.9099ZM66.4179 42.9099C65.8254 42.9099 65.2657 42.5547 65.0313 41.9711L56.0761 19.583C55.9291 19.2155 55.934 18.8046 56.0899 18.4407C56.2459 18.0768 56.5399 17.7898 56.9075 17.6427C57.275 17.4957 57.6859 17.5007 58.0498 17.6566C58.4137 17.8125 58.7007 18.1065 58.8478 18.4741L67.803 40.8621C67.8937 41.0886 67.9276 41.3338 67.9016 41.5764C67.8756 41.819 67.7905 42.0515 67.6539 42.2536C67.5172 42.4557 67.333 42.6211 67.1176 42.7356C66.9021 42.85 66.6619 42.9098 66.4179 42.9099Z" fill="#2D4DA1"/>
<path d="M132.581 65.6561C132.306 65.6563 132.036 65.5806 131.801 65.4372C131.567 65.2938 131.377 65.0883 131.251 64.8435C131.126 64.5987 131.071 64.3241 131.093 64.05C131.114 63.7759 131.21 63.513 131.372 63.2904L141.327 49.4993C141.56 49.1815 141.909 48.9687 142.298 48.9072C142.687 48.8456 143.085 48.9404 143.404 49.1709C143.724 49.4014 143.939 49.7488 144.003 50.1374C144.068 50.5261 143.976 50.9244 143.748 51.2456L133.793 65.0367C133.654 65.2287 133.472 65.385 133.261 65.4927C133.051 65.6004 132.817 65.6564 132.581 65.6561ZM123.133 78.7307C122.858 78.7309 122.588 78.6552 122.354 78.5118C122.119 78.3684 121.929 78.163 121.804 77.9182C121.679 77.6734 121.624 77.3987 121.645 77.1246C121.666 76.8506 121.763 76.5877 121.924 76.365L128.043 67.8874C128.276 67.5696 128.625 67.3567 129.014 67.2952C129.403 67.2337 129.801 67.3285 130.12 67.559C130.44 67.7894 130.655 68.1368 130.72 68.5255C130.784 68.9141 130.692 69.3125 130.464 69.6337L124.345 78.1113C124.206 78.3033 124.024 78.4596 123.814 78.5673C123.603 78.675 123.369 78.731 123.133 78.7307ZM115.672 74.2531C115.432 74.253 115.197 74.1953 114.984 74.0851C114.772 73.9748 114.59 73.8152 114.452 73.6196C114.314 73.424 114.226 73.1981 114.193 72.9611C114.161 72.7241 114.187 72.4828 114.267 72.2575L121.73 51.362C121.793 51.1741 121.893 51.0006 122.024 50.8517C122.155 50.7029 122.315 50.5817 122.493 50.4951C122.672 50.4086 122.866 50.3585 123.064 50.3478C123.262 50.3371 123.46 50.3659 123.647 50.4327C123.834 50.4994 124.005 50.6027 124.151 50.7366C124.298 50.8704 124.416 51.032 124.499 51.2121C124.582 51.3921 124.629 51.587 124.636 51.7852C124.643 51.9834 124.611 52.181 124.54 52.3665L117.078 73.262C116.974 73.5521 116.783 73.803 116.532 73.9805C116.28 74.1579 115.98 74.2531 115.672 74.2531ZM18.9866 66.7904C18.7499 66.7907 18.5165 66.7347 18.3058 66.627C18.0951 66.5193 17.913 66.363 17.7746 66.171L6.99851 51.2456C6.88375 51.0867 6.8014 50.9068 6.75617 50.7162C6.71094 50.5255 6.70371 50.3277 6.7349 50.1343C6.79787 49.7435 7.0135 49.3938 7.33433 49.162C7.65516 48.9303 8.05492 48.8354 8.44567 48.8984C8.83642 48.9614 9.18614 49.177 9.41791 49.4978L20.194 64.4232C20.3556 64.6458 20.4525 64.9087 20.474 65.1829C20.4955 65.4571 20.4407 65.7319 20.3158 65.9769C20.1908 66.2219 20.0005 66.4275 19.7659 66.5711C19.5313 66.7147 19.2616 66.7906 18.9866 66.7904ZM27.6134 78.7307C27.3766 78.7312 27.143 78.6752 26.9322 78.5672C26.7214 78.4592 26.5394 78.3023 26.4015 78.1098L21.4015 71.1695C21.1701 70.8483 21.0758 70.4483 21.1394 70.0575C21.2029 69.6668 21.4191 69.3173 21.7403 69.0859C22.0615 68.8545 22.4615 68.7602 22.8523 68.8238C23.243 68.8873 23.5925 69.1035 23.8239 69.4247L28.8239 76.365C28.9846 76.5879 29.0808 76.8508 29.1016 77.1249C29.1225 77.3989 29.0673 77.6734 28.9421 77.918C28.8169 78.1627 28.6266 78.368 28.3922 78.5114C28.1577 78.6548 27.8883 78.7307 27.6134 78.7307ZM35.0746 74.2531C34.7667 74.2531 34.4662 74.1579 34.2145 73.9805C33.9628 73.803 33.7721 73.5521 33.6687 73.262L26.206 52.3665C26.1358 52.181 26.1032 51.9834 26.1103 51.7852C26.1173 51.587 26.1638 51.3921 26.247 51.2121C26.3302 51.032 26.4484 50.8704 26.5948 50.7366C26.7412 50.6027 26.9128 50.4994 27.0995 50.4327C27.2863 50.3659 27.4845 50.3371 27.6825 50.3478C27.8806 50.3585 28.0745 50.4086 28.253 50.4951C28.4315 50.5817 28.5909 50.7029 28.722 50.8517C28.8531 51.0006 28.9531 51.1741 29.0164 51.362L36.4791 72.2575C36.5597 72.4828 36.585 72.7241 36.5529 72.9611C36.5207 73.1981 36.4321 73.424 36.2944 73.6196C36.1567 73.8152 35.9741 73.9748 35.7618 74.0851C35.5495 74.1953 35.3138 74.253 35.0746 74.2531Z" fill="#B51034"/>
<path d="M8.20896 123.507C7.81311 123.507 7.43348 123.35 7.15358 123.07C6.87367 122.79 6.71642 122.41 6.71642 122.014V108.581C6.71642 108.186 6.87367 107.806 7.15358 107.526C7.43348 107.246 7.81311 107.089 8.20896 107.089C8.60481 107.089 8.98444 107.246 9.26434 107.526C9.54425 107.806 9.7015 108.186 9.7015 108.581V122.014C9.7015 122.41 9.54425 122.79 9.26434 123.07C8.98444 123.35 8.60481 123.507 8.20896 123.507Z" fill="#2D4DA1"/>
<path d="M14.9254 116.791H1.49254C1.0967 116.791 0.717067 116.633 0.437162 116.354C0.157257 116.074 7.62939e-06 115.694 7.62939e-06 115.298C7.62939e-06 114.902 0.157257 114.523 0.437162 114.243C0.717067 113.963 1.0967 113.806 1.49254 113.806H14.9254C15.3212 113.806 15.7009 113.963 15.9808 114.243C16.2607 114.523 16.4179 114.902 16.4179 115.298C16.4179 115.694 16.2607 116.074 15.9808 116.354C15.7009 116.633 15.3212 116.791 14.9254 116.791Z" fill="#2D4DA1"/>
<path d="M33.8791 26.668C36.7597 26.668 36.7657 22.1904 33.8791 22.1904C30.997 22.1904 30.9925 26.668 33.8791 26.668Z" fill="#B51034"/>
<path d="M100 112.104L75.3731 132.044L50.7463 112.104L26.1194 92.1636V128.343C26.1194 135.567 31.9702 141.417 39.194 141.417H111.552C118.776 141.417 124.627 135.567 124.627 128.343V92.1636L100 112.104Z" fill="#F4B653"/>
<path opacity="0.6" d="M124.627 92.1636V128.343C124.627 134.671 120.134 139.94 114.179 141.149V100.626L124.627 92.1636Z" fill="#E59033"/>
<path d="M75.3731 141.417H50L62.6866 120.647L67.5433 112.696C71.8493 105.646 78.897 105.646 83.203 112.696L88.0597 120.647L100.746 141.417H75.3731Z" fill="#FFCC54"/>
<path d="M143.284 122.014C146.169 122.014 148.507 119.675 148.507 116.79C148.507 113.905 146.169 111.566 143.284 111.566C140.399 111.566 138.06 113.905 138.06 116.79C138.06 119.675 140.399 122.014 143.284 122.014Z" fill="#00D9F9"/>
<path d="M143.284 123.507C139.684 123.507 136.679 120.585 136.582 116.995C136.572 116.599 136.719 116.216 136.991 115.929C137.263 115.641 137.639 115.474 138.034 115.464C138.899 115.399 139.545 116.092 139.566 116.916C139.619 118.904 141.287 120.522 143.284 120.522C145.34 120.522 147.015 118.847 147.015 116.79C147.015 115.311 146.137 113.974 144.776 113.383C144.43 113.214 144.163 112.918 144.03 112.557C143.896 112.196 143.908 111.797 144.062 111.444C144.215 111.091 144.499 110.811 144.854 110.662C145.209 110.514 145.608 110.508 145.967 110.646C147.165 111.166 148.185 112.024 148.901 113.116C149.618 114.207 150 115.485 150 116.79C150 120.493 146.987 123.507 143.284 123.507Z" fill="#2D4DA1"/>
<path d="M118.424 39.0083C118.236 38.9523 118.061 38.8599 117.909 38.7363C117.757 38.6128 117.63 38.4604 117.537 38.288C117.444 38.1156 117.385 37.9265 117.365 37.7315C117.345 37.5365 117.363 37.3394 117.419 37.1516C117.925 35.4441 117.733 33.6058 116.885 32.04C116.037 30.4741 114.602 29.3087 112.896 28.7993C112.708 28.7434 112.533 28.651 112.38 28.5274C112.228 28.4038 112.102 28.2514 112.009 28.079C111.915 27.9066 111.857 27.7175 111.837 27.5225C111.817 27.3275 111.835 27.1305 111.891 26.9426C111.947 26.7547 112.039 26.5797 112.163 26.4276C112.287 26.2754 112.439 26.1491 112.611 26.0558C112.784 25.9626 112.973 25.9042 113.168 25.884C113.363 25.8638 113.56 25.8822 113.748 25.9381C115.455 26.4438 117.294 26.2515 118.859 25.4033C120.425 24.5552 121.591 23.1206 122.1 21.4142C122.156 21.2264 122.248 21.0514 122.372 20.8992C122.496 20.7471 122.648 20.6207 122.82 20.5275C122.993 20.4342 123.182 20.3758 123.377 20.3556C123.572 20.3354 123.769 20.3538 123.957 20.4098C124.145 20.4657 124.32 20.5581 124.472 20.6817C124.624 20.8053 124.75 20.9577 124.844 21.1301C124.937 21.3025 124.995 21.4916 125.015 21.6866C125.036 21.8816 125.017 22.0786 124.961 22.2665C124.456 23.9739 124.648 25.8123 125.496 27.3781C126.344 28.9439 127.779 30.1094 129.485 30.6187C129.673 30.6747 129.848 30.7671 130 30.8907C130.152 31.0143 130.279 31.1666 130.372 31.339C130.465 31.5115 130.524 31.7006 130.544 31.8955C130.564 32.0905 130.546 32.2876 130.49 32.4754C130.434 32.6633 130.341 32.8383 130.218 32.9905C130.094 33.1426 129.942 33.2689 129.769 33.3622C129.597 33.4555 129.408 33.5139 129.213 33.5341C129.018 33.5543 128.821 33.5359 128.633 33.4799C126.925 32.9743 125.087 33.1666 123.521 34.0147C121.955 34.8628 120.79 36.2974 120.281 38.0038C120.045 38.7934 119.213 39.2426 118.424 39.0083Z" fill="#53B848"/>
<path d="M118.354 33.1456C118.073 33.146 117.797 33.0669 117.559 32.9174C117.321 32.7679 117.131 32.5541 117.009 32.3008C116.609 31.4604 116.035 30.714 115.326 30.1106C114.617 29.5072 113.789 29.0603 112.896 28.7993C112.708 28.7434 112.533 28.651 112.38 28.5274C112.228 28.4038 112.102 28.2514 112.009 28.079C111.915 27.9066 111.857 27.7175 111.837 27.5225C111.817 27.3275 111.835 27.1305 111.891 26.9426C111.947 26.7547 112.039 26.5797 112.163 26.4276C112.287 26.2754 112.439 26.1491 112.611 26.0558C112.784 25.9626 112.973 25.9042 113.168 25.884C113.363 25.8638 113.56 25.8822 113.748 25.9381C115.455 26.4425 117.293 26.2497 118.859 25.4017C120.424 24.5538 121.59 23.1199 122.1 21.4142C122.213 21.0348 122.472 20.7158 122.82 20.5275C123.169 20.3391 123.577 20.2968 123.957 20.4098C124.336 20.5228 124.655 20.7819 124.844 21.1301C125.032 21.4783 125.074 21.8871 124.961 22.2665C124.676 23.2102 124.604 24.2057 124.752 25.1805C124.899 26.1554 125.262 27.0851 125.813 27.9023C126.035 28.2303 126.118 28.6329 126.043 29.0217C125.968 29.4105 125.741 29.7536 125.413 29.9754C125.085 30.1973 124.683 30.2798 124.294 30.2048C123.905 30.1298 123.562 29.9034 123.34 29.5754C122.764 28.7248 122.328 27.787 122.049 26.7978C120.956 27.7512 119.664 28.4497 118.267 28.8426C118.834 29.4919 119.318 30.2172 119.697 31.0053C119.807 31.2327 119.857 31.4842 119.843 31.7363C119.829 31.9883 119.751 32.2327 119.617 32.4465C119.482 32.6603 119.296 32.8366 119.075 32.9588C118.854 33.0811 118.606 33.1454 118.354 33.1456Z" fill="#015A2F"/>
</g>
<defs>
<clipPath id="clip0_34_82">
<rect width="150" height="150" fill="white"/>
</clipPath>
</defs>
</svg>
