<svg width="30" height="30" viewBox="0 0 30 30" fill="none" xmlns="http://www.w3.org/2000/svg">
<g clip-path="url(#clip0_80_37)">
<path d="M15 0C12.0333 0 9.13319 0.879735 6.66645 2.52796C4.19972 4.17618 2.27713 6.51886 1.14181 9.25975C0.00649932 12.0006 -0.290551 15.0166 0.288228 17.9264C0.867006 20.8361 2.29562 23.5088 4.3934 25.6066C6.49119 27.7044 9.16394 29.133 12.0737 29.7118C14.9834 30.2906 17.9994 29.9935 20.7403 28.8582C23.4811 27.7229 25.8238 25.8003 27.4721 23.3336C29.1203 20.8668 30 17.9667 30 15C30 11.0218 28.4197 7.20644 25.6066 4.3934C22.7936 1.58035 18.9783 0 15 0ZM24.375 7.89205L22.8784 9.32216C22.8145 9.36951 22.7648 9.43349 22.7348 9.50713C22.7047 9.58076 22.6954 9.66123 22.708 9.73977V20.2619C22.6956 20.3402 22.7049 20.4204 22.735 20.4937C22.765 20.5671 22.8147 20.6308 22.8784 20.6778L24.3392 22.1097V22.4216H16.9875V22.108L18.5028 20.642C18.6494 20.4955 18.6494 20.4494 18.6494 20.2244V11.7239L14.4375 22.3943H13.8665L8.96762 11.7239V18.883C8.9468 19.0313 8.96041 19.1824 9.00742 19.3245C9.05442 19.4667 9.13354 19.5962 9.23864 19.7028L11.2074 22.0892V22.4028H5.62501V22.0943L7.59376 19.708C7.69869 19.5993 7.77594 19.467 7.81895 19.3222C7.86197 19.1775 7.86951 19.0244 7.84092 18.8761V10.6074C7.85155 10.494 7.83569 10.3797 7.79457 10.2735C7.75345 10.1673 7.6882 10.0721 7.60398 9.99546L5.86194 7.89205V7.57841H11.296L15.4977 16.7727L19.1915 7.57841H24.375V7.89205Z" fill="black"/>
</g>
<defs>
<clipPath id="clip0_80_37">
<rect width="30" height="30" fill="white"/>
</clipPath>
</defs>
</svg>
