<svg width="60" height="60" viewBox="0 0 60 60" fill="none" xmlns="http://www.w3.org/2000/svg">
<path d="M55 0H5C2.23858 0 0 2.23858 0 5V55C0 57.7614 2.23858 60 5 60H55C57.7614 60 60 57.7614 60 55V5C60 2.23858 57.7614 0 55 0Z" fill="white"/>
<mask id="mask0_0_1" style="mask-type:luminance" maskUnits="userSpaceOnUse" x="8" y="14" width="43" height="31">
<path d="M50.4 14.4004H8.40002V44.4004H50.4V14.4004Z" fill="white"/>
</mask>
<g mask="url(#mask0_0_1)">
<path d="M12.9365 34.1914C12.9365 35.9194 13.2885 37.2404 13.7486 38.0414C13.9938 38.4974 14.3468 38.8754 14.7719 39.1374C15.197 39.3984 15.6789 39.5354 16.1688 39.5314C17.3518 39.5314 18.4341 39.2174 20.5198 36.1134C22.1907 33.6274 24.1595 30.1454 25.4857 27.9464L27.7291 24.2394C29.2876 21.6654 31.0884 18.8034 33.1595 16.8574C34.8465 15.2804 36.6678 14.4004 38.5008 14.4004C41.5782 14.4004 44.5096 16.3184 46.753 19.9154C49.2082 23.8544 50.4044 28.8164 50.4044 33.9374C50.4044 36.9804 49.8465 39.2174 48.8971 40.9844C47.9813 42.6934 46.1878 44.4004 43.1805 44.4004V39.5314C45.7554 39.5314 46.3937 36.9874 46.3937 34.0754C46.3937 29.9254 45.494 25.3204 43.512 22.0294C42.1055 19.6954 40.2827 18.2694 38.2773 18.2694C36.1084 18.2694 34.363 20.0284 32.4015 23.1654C31.3586 24.8314 30.288 26.8624 29.086 29.1544L27.7627 31.6674C25.1045 36.7354 24.4312 37.8904 23.1021 39.7954C20.7769 43.1444 18.7876 44.4004 16.1688 44.4004C13.0621 44.4004 11.0977 42.9544 9.88834 40.7744C8.88785 38.9974 8.40002 36.6664 8.40002 34.0104L12.9365 34.1914Z" fill="#0081FB"/>
<path d="M11.9769 20.2594C14.0568 16.8114 17.0582 14.4004 20.5008 14.4004C22.4945 14.4004 24.4764 15.0294 26.5461 16.8524C28.8099 18.8394 31.2199 22.1114 34.233 27.5034L35.3124 29.4384C37.918 34.1064 39.4019 36.5064 40.2681 37.6404C41.3839 39.0954 42.1668 39.5254 43.1804 39.5254C45.7554 39.5254 46.3937 36.9804 46.3937 34.0684L50.3956 33.9334C50.3956 36.9774 49.8377 39.2144 48.8883 40.9814C47.9813 42.6934 46.1877 44.4004 43.1804 44.4004C41.3109 44.4004 39.6546 43.9644 37.8231 42.1064C36.4151 40.6794 34.769 38.1464 33.5027 35.8684L29.7359 29.1024C27.846 25.7064 26.1123 23.1744 25.1089 22.0344C24.028 20.7954 22.642 19.3064 20.4278 19.3064C18.6356 19.3064 17.1137 20.6584 15.8401 22.7274L11.9769 20.2594Z" fill="url(#paint0_linear_0_1)"/>
<path d="M20.4278 19.3064C18.6357 19.3064 17.1138 20.6584 15.8401 22.7274C14.0393 25.6504 12.9365 30.0044 12.9365 34.1914C12.9365 35.9194 13.2885 37.2404 13.7486 38.0414L9.88104 40.7744C8.88785 38.9974 8.40002 36.6664 8.40002 34.0104C8.40002 29.1804 9.63274 24.1464 11.9769 20.2594C14.0568 16.8114 17.0583 14.4004 20.5008 14.4004L20.4278 19.3064Z" fill="url(#paint1_linear_0_1)"/>
</g>
<defs>
<linearGradient id="paint0_linear_0_1" x1="17.5052" y1="28.6234" x2="46.4343" y2="29.9824" gradientUnits="userSpaceOnUse">
<stop stop-color="#0064E1"/>
<stop offset="0.4" stop-color="#0064E1"/>
<stop offset="0.83" stop-color="#0073EE"/>
<stop offset="1" stop-color="#0082FB"/>
</linearGradient>
<linearGradient id="paint1_linear_0_1" x1="14.4497" y1="36.2334" x2="14.4497" y2="24.7674" gradientUnits="userSpaceOnUse">
<stop stop-color="#0082FB"/>
<stop offset="1" stop-color="#0064E0"/>
</linearGradient>
</defs>
</svg>
