<svg width="60" height="60" viewBox="0 0 60 60" fill="none" xmlns="http://www.w3.org/2000/svg">
<mask id="mask0_93_326" style="mask-type:luminance" maskUnits="userSpaceOnUse" x="0" y="0" width="60" height="60">
<path d="M60 0H0V60H60V0Z" fill="white"/>
</mask>
<g mask="url(#mask0_93_326)">
<path d="M54.482 0H5.51801C2.47001 0 0 2.47038 0 5.51776V54.4822C0 57.5296 2.47001 60 5.51801 60H54.482C57.53 60 60 57.5296 60 54.4822V5.51776C60 2.47038 57.53 0 54.482 0Z" fill="black"/>
<path fill-rule="evenodd" clip-rule="evenodd" d="M33.218 9.67716L33.202 18.6715L33.186 27.6658L32.446 25.5778L32.445 25.5737L31.488 45.5974C32.429 48.2524 32.932 49.6697 32.938 49.6754C32.945 49.6828 33.481 49.7151 34.129 49.7473C36.09 49.8446 38.521 50.0532 40.365 50.2823C40.792 50.3353 41.159 50.3625 41.182 50.3427C41.204 50.3229 41.216 41.165 41.208 29.9919L41.195 9.67716H33.218ZM18.789 9.65039V29.9857C18.789 41.1702 18.8 50.3321 18.814 50.3455C18.827 50.3589 19.52 50.2935 20.353 50.2002C21.186 50.1068 22.338 49.9908 22.912 49.9423C23.792 49.868 26.422 49.6989 26.726 49.6971C26.815 49.6965 26.82 49.2396 26.833 41.0839L26.847 32.4713L27.483 34.2712C27.581 34.5494 27.612 34.6363 27.708 34.9073L28.664 14.8885C28.461 14.3159 28.568 14.6165 28.335 13.9602C27.554 11.7517 26.892 9.87859 26.862 9.79762L26.81 9.65039H18.789Z" fill="#B1060F" stroke="black" stroke-width="0.310123"/>
<path fill-rule="evenodd" clip-rule="evenodd" d="M18.789 9.65039V21.0652L26.831 42.3956C26.831 41.9067 26.832 41.6426 26.833 41.0839L26.847 32.4713L27.483 34.2712C31.024 44.2916 32.927 49.6642 32.938 49.6754C32.945 49.6828 33.481 49.7151 34.129 49.7473C36.09 49.8446 38.521 50.0532 40.365 50.2823C40.792 50.3353 41.159 50.3625 41.182 50.3427C41.197 50.3291 41.207 45.8388 41.209 39.5042L33.206 16.494L33.202 18.6715L33.186 27.6658L32.446 25.5778C31.723 23.5376 31.24 22.1733 28.335 13.9602C27.554 11.7517 26.892 9.87859 26.862 9.79762L26.81 9.65039H18.789Z" fill="url(#paint0_radial_93_326)"/>
<path fill-rule="evenodd" clip-rule="evenodd" d="M18.79 9.65039L26.847 32.4817V32.4713L27.483 34.2712C31.024 44.2916 32.927 49.6642 32.938 49.6754C32.945 49.6828 33.481 49.7151 34.129 49.7473C36.09 49.8446 38.521 50.0532 40.365 50.2823C40.79 50.3351 41.155 50.3622 41.181 50.3429L33.186 27.6616V27.6658L32.446 25.5778C31.723 23.5376 31.24 22.1733 28.335 13.9602C27.554 11.7517 26.891 9.87859 26.862 9.79762L26.81 9.65039H18.79Z" fill="#E50914"/>
<path fill-rule="evenodd" clip-rule="evenodd" d="M33.218 9.67716L33.202 18.6715L33.186 27.6658L32.446 25.5778L32.445 25.5737L31.488 45.5974C32.429 48.2524 32.932 49.6697 32.938 49.6754C32.945 49.6828 33.481 49.7151 34.129 49.7473C36.09 49.8446 38.521 50.0532 40.365 50.2823C40.792 50.3353 41.159 50.3625 41.182 50.3427C41.204 50.3229 41.216 41.165 41.208 29.9919L41.195 9.67716H33.218ZM18.789 9.65039V29.9857C18.789 41.1702 18.8 50.3321 18.814 50.3455C18.827 50.3589 19.52 50.2935 20.353 50.2002C21.186 50.1068 22.338 49.9908 22.912 49.9423C23.792 49.868 26.422 49.6989 26.726 49.6971C26.815 49.6965 26.82 49.2396 26.833 41.0839L26.847 32.4713L27.483 34.2712C27.581 34.5494 27.612 34.6363 27.708 34.9073L28.664 14.8885C28.461 14.3159 28.568 14.6165 28.335 13.9602C27.554 11.7517 26.892 9.87859 26.862 9.79762L26.81 9.65039H18.789Z" fill="#B1060F" stroke="black" stroke-width="0.310123"/>
<path fill-rule="evenodd" clip-rule="evenodd" d="M18.789 9.65039V21.0652L26.831 42.3956C26.831 41.9067 26.832 41.6426 26.833 41.0839L26.847 32.4713L27.483 34.2712C31.024 44.2916 32.927 49.6642 32.938 49.6754C32.945 49.6828 33.481 49.7151 34.129 49.7473C36.09 49.8446 38.521 50.0532 40.365 50.2823C40.792 50.3353 41.159 50.3625 41.182 50.3427C41.197 50.3291 41.207 45.8388 41.209 39.5042L33.206 16.494L33.202 18.6715L33.186 27.6658L32.446 25.5778C31.723 23.5376 31.24 22.1733 28.335 13.9602C27.554 11.7517 26.892 9.87859 26.862 9.79762L26.81 9.65039H18.789Z" fill="url(#paint1_radial_93_326)"/>
<path fill-rule="evenodd" clip-rule="evenodd" d="M18.79 9.65039L26.847 32.4817V32.4713L27.483 34.2712C31.024 44.2916 32.927 49.6642 32.938 49.6754C32.945 49.6828 33.481 49.7151 34.129 49.7473C36.09 49.8446 38.521 50.0532 40.365 50.2823C40.79 50.3351 41.155 50.3622 41.181 50.3429L33.186 27.6616V27.6658L32.446 25.5778C31.723 23.5376 31.24 22.1733 28.335 13.9602C27.554 11.7517 26.891 9.87859 26.862 9.79762L26.81 9.65039H18.79Z" fill="#E50914"/>
</g>
<defs>
<radialGradient id="paint0_radial_93_326" cx="0" cy="0" r="1" gradientUnits="userSpaceOnUse" gradientTransform="translate(29.627 29.7632) rotate(-19.0977) scale(5.08161 186.134)">
<stop/>
<stop offset="1" stop-opacity="0"/>
</radialGradient>
<radialGradient id="paint1_radial_93_326" cx="0" cy="0" r="1" gradientUnits="userSpaceOnUse" gradientTransform="translate(29.627 29.7632) rotate(-19.0977) scale(5.08161 186.134)">
<stop/>
<stop offset="1" stop-opacity="0"/>
</radialGradient>
</defs>
</svg>
