<svg width="50" height="50" viewBox="0 0 50 50" fill="none" xmlns="http://www.w3.org/2000/svg">
<g clip-path="url(#clip0_93_370)">
<path d="M21.528 3.815V12.1584C21.528 13.29 20.6107 14.2068 19.4792 14.2068C15.442 14.2068 13.2459 18.3476 12.9415 26.5201H19.4792C20.6107 26.5201 21.528 27.4378 21.528 28.5689V46.1856C21.528 47.3166 20.6107 48.2336 19.4792 48.2336H2.0484C0.916414 48.2336 0 47.3159 0 46.1856V28.5689C0 24.6512 0.394468 21.056 1.17209 17.8821C1.96962 14.6276 3.19384 11.7821 4.80967 9.42435C6.47234 7.00125 8.5521 5.09981 10.9917 3.77518C13.4477 2.44253 16.3038 1.7666 19.4799 1.7666C20.6107 1.7666 21.528 2.68345 21.528 3.815ZM47.951 14.2069C49.082 14.2069 50 13.2892 50 12.1585V3.81514C50 2.68359 49.0822 1.76674 47.951 1.76674C44.7762 1.76674 41.9197 2.44281 39.4645 3.77532C37.0245 5.09995 34.9436 7.00139 33.2807 9.42449C31.6654 11.7823 30.4412 14.6279 29.6435 17.8831C28.8663 21.058 28.4719 24.6532 28.4719 28.5691V46.1858C28.4719 47.3167 29.3894 48.2337 30.5207 48.2337H47.9509C49.0819 48.2337 49.999 47.316 49.999 46.1858V28.5689C49.999 27.4379 49.082 26.5201 47.9509 26.5201H41.5065C41.8063 18.3477 43.9703 14.2069 47.951 14.2069Z" fill="#414759"/>
</g>
<defs>
<clipPath id="clip0_93_370">
<rect width="50" height="50" fill="white"/>
</clipPath>
</defs>
</svg>
