<svg width="80" height="80" viewBox="0 0 80 80" fill="none" xmlns="http://www.w3.org/2000/svg">
<path opacity="0.3" d="M49.5667 16.5334L45.5267 18.5567C44.314 19.1623 43.3304 20.1448 42.7233 21.3567L40.7 25.4C40.6348 25.5298 40.5348 25.6389 40.4112 25.7152C40.2876 25.7914 40.1452 25.8318 40 25.8318C39.8548 25.8318 39.7124 25.7914 39.5888 25.7152C39.4652 25.6389 39.3652 25.5298 39.3 25.4L37.28 21.3567C36.673 20.1448 35.6893 19.1623 34.4767 18.5567L30.4333 16.5334C30.3036 16.4682 30.1944 16.3682 30.1182 16.2446C30.042 16.121 30.0016 15.9786 30.0016 15.8334C30.0016 15.6881 30.042 15.5458 30.1182 15.4222C30.1944 15.2985 30.3036 15.1986 30.4333 15.1334L34.4767 13.11C35.6881 12.5039 36.6705 11.5215 37.2767 10.31L39.3 6.26671C39.3652 6.13693 39.4652 6.02782 39.5888 5.95158C39.7124 5.87534 39.8548 5.83496 40 5.83496C40.1452 5.83496 40.2876 5.87534 40.4112 5.95158C40.5348 6.02782 40.6348 6.13693 40.7 6.26671L42.7233 10.31C43.33 11.52 44.3133 12.5034 45.5233 13.11L49.5667 15.1334C49.6965 15.1986 49.8056 15.2985 49.8818 15.4222C49.958 15.5458 49.9984 15.6881 49.9984 15.8334C49.9984 15.9786 49.958 16.121 49.8818 16.2446C49.8056 16.3682 49.6965 16.4682 49.5667 16.5334Z" fill="#3B82F6"/>
<path d="M71.6667 74.1665H55V50.8332C55 49.9491 55.3512 49.1013 55.9764 48.4761C56.6015 47.851 57.4493 47.4998 58.3334 47.4998H68.3334C69.2174 47.4998 70.0653 47.851 70.6904 48.4761C71.3155 49.1013 71.6667 49.9491 71.6667 50.8332V74.1665ZM8.33337 74.1665H25V64.1665C25 63.2824 24.6489 62.4346 24.0237 61.8095C23.3986 61.1844 22.5508 60.8332 21.6667 60.8332H11.6667C10.7827 60.8332 9.93481 61.1844 9.30968 61.8095C8.68456 62.4346 8.33337 63.2824 8.33337 64.1665V74.1665ZM48.3334 37.4998C48.3334 36.6158 47.9822 35.7679 47.3571 35.1428C46.7319 34.5177 45.8841 34.1665 45 34.1665H35C34.116 34.1665 33.2681 34.5177 32.643 35.1428C32.0179 35.7679 31.6667 36.6158 31.6667 37.4998V74.1665H48.3334V37.4998Z" fill="#3B82F6"/>
</svg>
