<svg width="60" height="60" viewBox="0 0 60 60" fill="none" xmlns="http://www.w3.org/2000/svg">
<path d="M55 0H5C2.23858 0 0 2.23858 0 5V55C0 57.7614 2.23858 60 5 60H55C57.7614 60 60 57.7614 60 55V5C60 2.23858 57.7614 0 55 0Z" fill="white"/>
<mask id="mask0_0_1" style="mask-type:luminance" maskUnits="userSpaceOnUse" x="8" y="8" width="43" height="43">
<path d="M50.4 8.40039H8.39999V50.4004H50.4V8.40039Z" fill="white"/>
</mask>
<g mask="url(#mask0_0_1)">
<path d="M29.402 50.317L35.255 17.261C40.834 17.261 42.593 17.876 42.847 20.383C42.847 20.383 46.59 18.982 48.477 16.136C41.112 12.7081 33.711 12.5536 33.711 12.5536L29.393 17.836L29.402 17.835L25.084 12.5527C25.084 12.5527 17.6831 12.7075 10.3187 16.135C12.2045 18.981 15.9483 20.382 15.9483 20.382C16.2038 17.875 17.9613 17.26 23.502 17.256L29.402 50.317Z" fill="#E82127"/>
<path d="M29.4 11.0282C35.354 10.9825 42.169 11.9532 49.145 15.007C50.078 13.321 50.318 12.5765 50.318 12.5765C42.691 9.5464 35.549 8.5094 29.399 8.4834C23.249 8.5094 16.1078 9.5466 8.48248 12.5765C8.48248 12.5765 8.82269 13.494 9.65379 15.007C16.6289 11.9532 23.446 10.9825 29.4 11.0282Z" fill="#E82127"/>
</g>
</svg>
