<svg width="60" height="60" viewBox="0 0 60 60" fill="none" xmlns="http://www.w3.org/2000/svg">
<path d="M55 0H5C2.23858 0 0 2.23858 0 5V55C0 57.7614 2.23858 60 5 60H55C57.7614 60 60 57.7614 60 55V5C60 2.23858 57.7614 0 55 0Z" fill="white"/>
<path d="M42.681 20.101C40.933 19.727 39.351 18.805 38.164 17.468C36.977 16.132 36.248 14.452 36.083 12.6721V11.9004H30.055V35.826C30.051 36.886 29.715 37.917 29.095 38.776C28.475 39.634 27.601 40.277 26.597 40.614C25.593 40.95 24.508 40.964 23.496 40.652C22.483 40.341 21.594 39.72 20.953 38.877C20.302 38.019 19.94 36.977 19.921 35.901C19.903 34.824 20.227 33.77 20.848 32.891C21.468 32.011 22.353 31.352 23.374 31.009C24.394 30.667 25.497 30.658 26.523 30.984V24.859C24.236 24.543 21.906 24.95 19.861 26.022C17.816 27.095 16.158 28.78 15.118 30.842C14.078 32.904 13.708 35.239 14.06 37.521C14.413 39.803 15.47 41.918 17.084 43.57C18.622 45.145 20.596 46.225 22.751 46.673C24.907 47.121 27.147 46.917 29.186 46.086C31.225 45.255 32.97 43.836 34.198 42.009C35.427 40.182 36.083 38.03 36.083 35.828V23.603C38.52 25.344 41.441 26.278 44.436 26.273V20.283C43.846 20.284 43.258 20.223 42.681 20.101Z" fill="black"/>
</svg>
