<svg width="30" height="30" viewBox="0 0 30 30" fill="none" xmlns="http://www.w3.org/2000/svg">
<g clip-path="url(#clip0_80_62)">
<path d="M30.0007 15C30.0007 23.284 23.2847 30 15 30H14.9719C6.70051 29.9845 0 23.2729 0 15C0 6.72712 6.70051 0.0147849 14.9719 0H15C23.2847 0 30.0007 6.71381 30.0007 15Z" fill="black"/>
<path d="M14.9719 0V30C6.70051 29.9845 0 23.2729 0 15C0 6.72712 6.70051 0.0147849 14.9719 0Z" fill="#0C0C0C"/>
<path d="M23.1621 10.8476L23.1436 13.9207C22.5447 13.9134 21.949 13.8334 21.3694 13.6826C20.4752 13.4491 19.6319 13.0523 18.8818 12.5124C18.8818 12.8266 18.8863 13.2953 18.8863 13.8652C18.8863 14.6237 18.8863 15.0547 18.8818 15.5123C18.8685 18.3391 18.9388 18.8862 18.6904 20.0039C18.6387 20.2735 18.568 20.539 18.4789 20.7986C18.0014 22.1292 16.9605 23.1952 15.8997 23.7622C15.6037 23.9196 15.293 24.0476 14.972 24.1444C12.9671 24.7521 10.5579 24.2183 9.31453 22.7399L9.3064 22.731L9.29679 22.7184C8.24041 21.444 8.00977 19.4569 7.98759 18.9483C7.98759 18.8832 7.98316 18.8196 7.98316 18.8196C7.96688 18.1249 8.06682 17.4323 8.27885 16.7705C8.49323 16.0859 9.19921 14.657 10.7849 13.7891C11.7738 13.2564 12.9026 13.0404 14.0183 13.1703L13.9821 16.2803C13.9193 16.2641 12.4001 15.9041 11.4029 16.939C10.4995 17.8764 10.5579 19.3866 11.1989 20.242C11.2329 20.2878 11.2691 20.3321 11.3068 20.3735C11.6653 20.7735 12.12 20.9235 12.4268 21.0285C12.8335 21.1625 13.2605 21.2251 13.6886 21.2133C14.1473 21.2062 14.5935 21.0628 14.9705 20.8016C16.0128 20.0934 16.1533 18.8322 16.1585 18.7605C16.1456 14.7006 16.1336 10.6407 16.1222 6.58072V6.57703L18.0761 6.54228H18.1078L18.391 6.53711C18.5997 7.28844 18.9536 7.99163 19.4326 8.60699C19.5835 8.79947 19.7464 8.98218 19.9205 9.15403C20.578 9.79398 21.3678 10.282 22.2343 10.5837H22.2402C22.5408 10.6936 22.8489 10.7818 23.1621 10.8476Z" fill="#FD2854"/>
<path d="M22.2787 12.2383H22.2727C21.2205 12.4069 20.1434 12.3251 19.1287 11.9995C18.4202 11.7692 17.7551 11.4221 17.1609 10.9727C17.5172 13.1265 17.5172 15.3243 17.1609 17.4781C16.7388 20.0092 16.4741 21.5957 15.0614 22.6106C15.0318 22.6321 15.0015 22.6535 14.9712 22.6735C13.0204 23.9945 10.2948 23.3388 9.29605 22.7171L9.28127 22.7082L9.25317 22.6905C8.92398 22.4724 8.6152 22.225 8.3306 21.9512C7.82043 21.4564 7.41333 20.8653 7.1328 20.2123C6.85227 19.5592 6.70385 18.8571 6.69613 18.1463C6.67715 17.4102 6.79935 16.6772 7.05614 15.987C7.22247 15.5435 7.84048 13.9659 9.56218 13.0056C10.6646 12.4011 11.9386 12.1855 13.1786 12.3935C13.1736 12.64 13.169 12.8864 13.1645 13.1328V13.138L13.1357 14.6978C12.5961 14.5706 12.0383 14.5396 11.4879 14.6061C11.0444 14.6608 10.6097 14.7118 10.1477 15.0023C9.55594 15.3832 9.13713 15.9809 8.98113 16.6671C8.88242 16.9995 8.86217 17.3502 8.92199 17.6917C8.93974 17.7893 9.06984 18.4672 9.61688 18.9536C9.80095 19.117 9.87931 19.1236 10.1477 19.3742C10.3842 19.596 10.4434 19.7025 10.66 19.8865C10.66 19.8865 10.7132 19.9316 10.8004 19.9952C10.806 20 10.8119 20.0045 10.8182 20.0085C10.9374 20.0957 11.0627 20.1745 11.193 20.2443C11.7348 20.5282 12.7047 20.5585 13.4159 20.2133C14.3998 19.735 14.9365 18.635 14.9343 17.9815C14.9224 13.9201 14.9104 9.85893 14.898 5.79802H14.9661L17.9836 5.78027C17.9815 6.01565 18.0141 6.25006 18.0805 6.4759C18.0879 6.5003 18.0953 6.52321 18.1034 6.54983C18.1115 6.57644 18.1167 6.58901 18.1234 6.60749C18.1702 6.73034 18.2242 6.85031 18.2853 6.96676L18.3274 7.05177V7.05843C18.3267 7.06034 18.3267 7.06243 18.3274 7.06434L18.334 7.07839L18.3407 7.09169C18.3447 7.10029 18.3491 7.10868 18.354 7.11683C18.3584 7.12644 18.3636 7.13605 18.3688 7.14566C18.3969 7.19962 18.4353 7.27059 18.4789 7.35043C18.5063 7.39996 18.5351 7.44949 18.5647 7.49828L18.5965 7.55076C18.612 7.57738 18.6283 7.60399 18.6445 7.62986L18.7037 7.72375C18.9336 8.08671 19.3372 8.69807 19.9094 9.1601C20.7137 9.80915 21.6377 9.99249 22.2173 10.0472C22.221 10.229 22.2254 10.4109 22.2291 10.5928C22.2508 11.1418 22.2673 11.6903 22.2787 12.2383Z" fill="#24F6FA"/>
<path d="M22.2882 13.1069C20.765 13.1628 19.2694 12.6892 18.056 11.7667V18.272C18.0413 18.5211 17.8232 21.2689 15.3408 22.7814C15.2181 22.8553 15.0946 22.9241 14.9712 22.9877C12.6359 24.1793 10.3539 23.2457 10.1284 23.1488C9.9042 23.0755 9.68935 22.9763 9.48821 22.8531C9.42537 22.8139 9.36401 22.7733 9.30561 22.7311L9.25313 22.692C7.73028 21.5358 7.66745 19.1806 7.65784 18.8331C7.64156 18.1383 7.74151 17.4457 7.95354 16.7839C8.20488 15.9818 8.95521 14.6298 10.4596 13.8026C11.2897 13.3508 12.2225 13.1216 13.1674 13.1372V13.1424L13.1305 15.4866C12.9715 15.4437 11.9972 15.1982 11.0451 15.7978C10.4533 16.1787 10.0345 16.7763 9.87853 17.4626C9.78519 17.7956 9.76502 18.1448 9.81939 18.4864C9.9038 18.9081 10.1028 19.2984 10.3945 19.6145C10.5172 19.7557 10.6542 19.8838 10.8033 19.9967C10.8089 20.0015 10.8148 20.006 10.8211 20.01C10.9382 20.1004 11.0637 20.1793 11.1959 20.2458L11.2003 20.2495C11.4645 20.6484 11.8455 20.9559 12.2912 21.1298C12.737 21.3037 13.2256 21.3355 13.6901 21.2209C13.9065 21.1757 14.1167 21.1047 14.3162 21.0094C14.5578 20.8945 14.7793 20.7412 14.9719 20.5555C15.72 19.8363 15.8294 18.8412 15.8346 18.7814L15.8021 6.59197L16.1274 6.58532L18.0812 6.54688H18.1093C18.1666 6.68783 18.2285 6.82688 18.2948 6.96381L18.337 7.04882V7.05548C18.3363 7.05739 18.3363 7.05948 18.337 7.06139L18.3436 7.07543L18.3503 7.08874C18.3543 7.09734 18.3587 7.10573 18.3636 7.11388C18.368 7.12349 18.3732 7.1331 18.3784 7.14271C18.4124 7.20924 18.4523 7.27799 18.4885 7.34748C18.5159 7.39701 18.5447 7.44653 18.5743 7.49533L18.606 7.54781L18.6541 7.62691L18.7132 7.72079C19.0514 8.24967 19.4567 8.73247 19.9189 9.15715C20.5936 9.77481 21.3785 10.2598 22.2328 10.5868H22.2387C22.2483 11.1346 22.2579 11.6839 22.2668 12.2317L22.2882 13.1069Z" fill="white"/>
<path opacity="0.17" d="M23.162 10.8478L23.1435 13.9208C22.5447 13.9135 21.9489 13.8336 21.3693 13.6828C20.4752 13.4492 19.6318 13.0525 18.8818 12.5126C18.8818 12.8267 18.8862 13.2954 18.8862 13.8654C18.8862 14.6238 18.8862 15.0548 18.8818 15.5124C18.8685 18.3393 18.9387 18.8863 18.6903 20.0041C18.6386 20.2736 18.568 20.5392 18.4789 20.7988C18.0013 22.1294 16.9605 23.1954 15.8997 23.7624C15.6036 23.9198 15.2929 24.0478 14.9719 24.1446V5.79802L17.9895 5.78027C17.9874 6.01565 18.02 6.25006 18.0864 6.4759C18.0938 6.5003 18.1011 6.52321 18.1093 6.54983L18.3924 6.54465C18.6012 7.29598 18.955 7.99917 19.434 8.61453C19.5849 8.80701 19.7479 8.98972 19.9219 9.16158C20.7262 9.81063 21.6503 9.99396 22.2298 10.0487C22.2335 10.2305 22.238 10.4124 22.2416 10.5942C22.542 10.7005 22.8496 10.7852 23.162 10.8478Z" fill="black"/>
</g>
<defs>
<clipPath id="clip0_80_62">
<rect width="30" height="30" fill="white"/>
</clipPath>
</defs>
</svg>
