<svg width="30" height="30" viewBox="0 0 30 30" fill="none" xmlns="http://www.w3.org/2000/svg">
<path d="M15 30C23.2843 30 30 23.2843 30 15C30 6.71573 23.2843 0 15 0C6.71573 0 0 6.71573 0 15C0 23.2843 6.71573 30 15 30Z" fill="#03A9F4"/>
<path d="M24.7164 8.97451C23.9855 9.29371 23.2124 9.50576 22.421 9.60412C23.2553 9.10938 23.879 8.3256 24.1736 7.40149C23.3928 7.86498 22.5383 8.1914 21.6473 8.36662C21.1013 7.7827 20.3923 7.3766 19.6123 7.20113C18.8324 7.02567 18.0177 7.08895 17.2743 7.38276C16.5308 7.67657 15.893 8.18731 15.4437 8.84853C14.9944 9.50976 14.7545 10.2909 14.7552 11.0903C14.7524 11.3954 14.7835 11.6999 14.848 11.9982C13.2631 11.9203 11.7124 11.509 10.2973 10.7911C8.88212 10.0731 7.63436 9.06474 6.63548 7.83175C6.12205 8.70887 5.96298 9.74897 6.19079 10.7395C6.4186 11.7299 7.01609 12.596 7.86114 13.1607C7.2304 13.1437 6.61301 12.9751 6.06114 12.6692V12.7127C6.06291 13.6321 6.38115 14.5228 6.96234 15.2352C7.54354 15.9476 8.35227 16.4382 9.25259 16.6245C8.91187 16.714 8.56077 16.7578 8.20851 16.7548C7.95486 16.7595 7.70144 16.737 7.45259 16.6877C7.71052 17.4784 8.20711 18.1697 8.87404 18.6667C9.54097 19.1636 10.3455 19.4417 11.1769 19.4627C9.76796 20.564 8.03102 21.1622 6.24272 21.162C5.92408 21.1647 5.60562 21.1463 5.28943 21.1067C7.11286 22.2824 9.2383 22.9036 11.4078 22.8949C18.7401 22.8949 22.7486 16.8219 22.7486 11.5581C22.7486 11.3824 22.7486 11.2127 22.7348 11.0429C23.5155 10.4795 24.187 9.77861 24.7164 8.97451Z" fill="white"/>
</svg>
