<svg width="30" height="30" viewBox="0 0 30 30" fill="none" xmlns="http://www.w3.org/2000/svg">
<path d="M13.6746 13.674C12.9422 14.4064 12.9422 15.5936 13.6746 16.3254C14.4064 17.0578 15.5941 17.0578 16.326 16.3254C17.0584 15.593 17.0584 14.4059 16.326 13.674C15.5936 12.9422 14.4064 12.9422 13.6746 13.674ZM15 0.46875C6.97441 0.46875 0.46875 6.97441 0.46875 15C0.46875 23.0256 6.97441 29.5312 15 29.5312C23.0256 29.5312 29.5312 23.0256 29.5312 15C29.5312 6.97441 23.0256 0.46875 15 0.46875ZM22.391 9.14355L18.5256 17.6016C18.3386 18.0106 18.0106 18.3386 17.6016 18.5256L9.14414 22.391C8.16855 22.8369 7.16309 21.8314 7.60898 20.8559L11.475 12.3979C11.662 11.9888 11.99 11.6608 12.399 11.4738L20.8564 7.6084C21.832 7.16309 22.8369 8.16797 22.391 9.14355Z" fill="#353A40"/>
</svg>
