<svg width="30" height="30" viewBox="0 0 30 30" fill="none" xmlns="http://www.w3.org/2000/svg">
<g clip-path="url(#clip0_80_41)">
<path d="M15 30C23.2843 30 30 23.2843 30 15C30 6.71573 23.2843 0 15 0C6.71573 0 0 6.71573 0 15C0 23.2843 6.71573 30 15 30Z" fill="#F20000"/>
<path d="M22.1486 11.3921C21.8486 10.4605 20.8559 9.90983 19.9342 9.78154C16.6487 9.43219 13.3354 9.43219 10.0499 9.78154C9.13613 9.90983 8.14336 10.4684 7.84336 11.3921C7.37562 13.7753 7.37562 16.2266 7.84336 18.6098C8.15126 19.5394 9.14402 20.0921 10.0657 20.2204C13.3513 20.5677 16.6644 20.5677 19.9499 20.2204C20.8638 20.0921 21.8565 19.5315 22.1565 18.6098C22.6217 16.2261 22.619 13.7747 22.1486 11.3921ZM13.2059 17.8736V12.1263L17.8855 15C16.3085 15.969 14.7769 16.9125 13.2059 17.8736Z" fill="white"/>
</g>
<defs>
<clipPath id="clip0_80_41">
<rect width="30" height="30" fill="white"/>
</clipPath>
</defs>
</svg>
